<?xml version="1.0" encoding="UTF-8"?>
<svg version="1.1" xmlns="http://www.w3.org/2000/svg" width="1103" height="308">
<path d="M0 0 C7.86126927 6.7382308 7.86126927 6.7382308 10.46484375 9.40234375 C11.03783203 9.98306641 11.61082031 10.56378906 12.20117188 11.16210938 C13.35486164 12.34175391 14.50850777 13.52144113 15.66210938 14.70117188 C18.56972466 17.64794696 21.51290538 20.4790412 24.66320801 23.16639709 C29.30439609 27.20764337 33.6460639 31.5128881 37.98632812 35.87280273 C38.84581055 36.73213913 39.70529297 37.59147552 40.59082031 38.47685242 C42.92266611 40.80927115 45.25229367 43.14387723 47.58091164 45.4795177 C50.0240943 47.92899672 52.47015257 50.3756009 54.91589355 52.82252502 C59.53588292 57.44560932 64.15331959 62.07123434 68.76982069 66.69780165 C74.0303061 71.9695056 79.29366735 77.23833431 84.55725956 82.50693595 C95.37468574 93.33478485 106.18853558 104.16619816 117 115 C121.38594584 111.3188639 125.58681228 107.53908667 129.640625 103.48876953 C130.15709595 102.9740509 130.67356689 102.45933228 131.20568848 101.92901611 C132.88962639 100.24943116 134.56993612 98.56627189 136.25 96.8828125 C137.43377364 95.69971389 138.61769557 94.51676363 139.80175781 93.33395386 C142.27441403 90.86276583 144.74526855 88.38979427 147.21484375 85.91552734 C150.3616587 82.76302195 153.51293427 79.61501985 156.66558838 76.46835518 C159.10909939 74.02847892 161.55019749 71.58619967 163.99060059 69.14321518 C165.15074525 67.98240896 166.31161783 66.82232973 167.4732666 65.66302872 C172.91317067 60.23170911 178.2781358 54.7954082 183.27740479 48.94943237 C186.87547768 44.87755308 190.77178841 41.08632219 194.6171875 37.25 C195.51494904 36.35128174 196.41271057 35.45256348 197.337677 34.52661133 C199.22064707 32.64296472 201.1045753 30.76034254 202.99023438 28.87939453 C205.41141997 26.46396314 207.82801036 24.04399136 210.24334526 21.62271118 C212.55304054 19.30855328 214.86652008 16.99818646 217.1796875 14.6875 C218.04939178 13.81577148 218.91909607 12.94404297 219.81515503 12.04589844 C220.61333649 11.25086914 221.41151794 10.45583984 222.23388672 9.63671875 C222.93891327 8.93248779 223.64393982 8.22825684 224.37033081 7.50268555 C226 6 226 6 227 6 C227.16230158 18.52613872 227.28662637 31.05202667 227.3626852 43.57900333 C227.39919292 49.39606469 227.44869975 55.21240586 227.52807617 61.02905273 C227.60422161 66.64417519 227.64600881 72.25860567 227.6641407 77.87420464 C227.67705933 80.01487559 227.70228732 82.15550932 227.7401104 84.29588509 C227.79105129 87.29842605 227.79791865 90.29812074 227.79467773 93.30102539 C227.81984467 94.1828801 227.8450116 95.0647348 227.87094116 95.97331238 C227.81337979 100.91310803 227.11359077 103.41983379 223.58361816 106.98368835 C222.40752026 108.01063629 221.21490214 109.01926501 220 110 C218.94437866 110.97018066 218.94437866 110.97018066 217.86743164 111.95996094 C217.28340576 112.46301758 216.69937988 112.96607422 216.09765625 113.484375 C215.43008301 114.06251953 214.76250977 114.64066406 214.07470703 115.23632812 C212.67460726 116.42652826 211.26648471 117.60734599 209.85107422 118.77929688 C200.66194305 125.65159019 200.66194305 125.65159019 195.296875 135.171875 C195.62686901 137.99019211 195.62686901 137.99019211 196.390625 140.6328125 C197.06774114 143.26314828 196.94081993 144.3880474 195.9375 146.875 C193.14558847 151.37808312 190.14013229 154.28662257 185 156 C178.84835922 156.51263673 174.86670552 155.93032673 170 152 C166.51185124 148.33297182 165.70720099 145.42603649 165.5 140.5 C165.68639697 135.60042246 166.64787312 132.72458542 170 129 C174.13170629 125.3691066 177.50220496 124.88823813 182.96484375 124.8671875 C185 125 185 125 186.89355469 125.69311523 C189.06034854 126.24122178 189.06034854 126.24122178 190.8527832 124.83666992 C191.47499756 124.24474854 192.09721191 123.65282715 192.73828125 123.04296875 C193.4338916 122.39376465 194.12950195 121.74456055 194.84619141 121.07568359 C195.55694824 120.39070801 196.26770508 119.70573242 197 119 C198.36823519 117.72498737 199.73672193 116.45024462 201.10546875 115.17578125 C203.16114463 113.2342003 205.21281726 111.28846884 207.26367188 109.34179688 C207.93333984 108.70951172 208.60300781 108.07722656 209.29296875 107.42578125 C210.18278442 106.58140503 210.18278442 106.58140503 211.09057617 105.7199707 C213 104 213 104 215.5838623 102.34544373 C218.29911469 100.16378059 218.29911469 100.16378059 218.60127258 96.70965576 C218.59016953 95.40393616 218.57906647 94.09821655 218.56762695 92.75292969 C218.56835709 92.03058136 218.56908722 91.30823303 218.56983948 90.56399536 C218.5663631 88.18251771 218.52750427 85.80300976 218.48828125 83.421875 C218.47895319 81.76850452 218.47183704 80.1151202 218.46684265 78.46173096 C218.44777201 74.11468195 218.39867146 69.76847122 218.34332275 65.42175293 C218.29213121 60.98440898 218.26932886 56.54692927 218.24414062 52.109375 C218.19055203 43.40586575 218.10523942 34.70303721 218 26 C216.97561545 26.99636187 215.95577287 27.99739287 214.9375 29 C214.36902344 29.556875 213.80054688 30.11375 213.21484375 30.6875 C211.30134511 32.68536807 209.48962853 34.72498949 207.68103027 36.81677246 C204.32076069 40.67965659 200.80104198 44.32842621 197.16601562 47.93164062 C196.52274826 48.57344772 195.8794809 49.21525482 195.21672058 49.87651062 C193.83417528 51.25528115 192.45047714 52.63289651 191.0657196 54.00944519 C188.86809039 56.19418582 186.67370966 58.38214426 184.48010254 60.57092285 C179.03407592 66.0036559 173.58259647 71.43090662 168.13128662 76.8583374 C163.51447326 81.45534891 158.89976178 86.05445135 154.2877655 90.65629578 C152.13681369 92.80081509 149.98284828 94.94227484 147.82873535 97.08361816 C146.49700216 98.41171531 145.16541115 99.73995504 143.83398438 101.06835938 C142.94848152 101.94611275 142.94848152 101.94611275 142.04508972 102.84159851 C137.82697562 107.05918468 133.88221979 111.47281021 130 116 C129.41785484 116.67684593 128.83570969 117.35369186 128.23592377 118.05104828 C126.82137963 119.69849604 125.41029975 121.34891736 124 123 C124.57367184 123.24849355 125.14734367 123.49698709 125.73839951 123.75301075 C128.34380145 125.18956342 130.08615035 126.84315605 132.18560791 128.951828 C133.01254654 129.77746246 133.83948517 130.60309692 134.69148254 131.45375061 C135.5902562 132.36128586 136.48902985 133.26882111 137.41503906 134.20385742 C138.37756829 135.16858875 139.34054677 136.13287202 140.30393982 137.09674072 C142.3764932 139.1722259 144.44585166 141.25082708 146.51279449 143.33189964 C149.7867248 146.62813397 153.06776283 149.91723142 156.34979248 153.20539856 C161.54653729 158.41352589 166.73859167 163.62630043 171.92861819 168.84112197 C181.20555155 178.16231408 190.48794528 187.47805991 199.77571082 196.78845865 C203.03098271 200.05209463 206.28342344 203.31851778 209.5335536 206.58727396 C211.56566298 208.63010525 213.59986659 210.67084198 215.63456917 212.71109009 C217.01359764 214.09518707 218.39005353 215.48184575 219.7664032 216.86860657 C224.15522135 221.26536053 228.60966167 225.50351416 233.3223381 229.55167675 C235.26633179 231.22992387 237.11559787 232.98255058 238.9375 234.79223633 C239.92762085 235.7727874 239.92762085 235.7727874 240.93774414 236.77314758 C241.95856079 237.792295 241.95856079 237.792295 243 238.83203125 C243.7211499 239.54985275 244.4422998 240.26767426 245.18530273 241.00724792 C246.69238218 242.50930527 248.19814717 244.01268256 249.70263672 245.51733398 C252.01641031 247.82889461 254.33810131 250.13230884 256.66015625 252.43554688 C258.12809197 253.90055305 259.59555735 255.3660307 261.0625 256.83203125 C262.10760742 257.8663604 262.10760742 257.8663604 263.17382812 258.92158508 C263.80869141 259.55952499 264.44355469 260.1974649 265.09765625 260.85473633 C265.65976807 261.41542313 266.22187988 261.97610992 266.80102539 262.55378723 C268 264 268 264 268 266 C255.86513569 266.51378795 243.73292531 266.90259344 231.58933067 267.13986778 C225.94736435 267.25386844 220.31292463 267.40788304 214.67529297 267.65966797 C173.66868947 269.4437028 173.66868947 269.4437028 162.62640572 259.87893867 C158.47864893 255.91051401 155.03568045 251.43362091 151.82574463 246.68145752 C147.929671 240.95932324 143.10999274 235.97202011 138.1875 231.125 C137.33929688 230.28453125 136.49109375 229.4440625 135.6171875 228.578125 C134.75351562 227.72734375 133.88984375 226.8765625 133 226 C126.5668752 219.66289199 120.4162672 213.23063605 114.59130859 206.33154297 C109.45672307 199.88695469 109.45672307 199.88695469 102.31640625 196.59375 C99.75278867 196.89826615 99.75278867 196.89826615 97.28125 197.49609375 C93.64343982 198.29965114 91.33444495 197.53897459 88 196 C84.71790675 192.91097106 81.26972657 189.45849134 80.76171875 184.828125 C80.59401086 179.00248235 80.92163652 175.5076649 85 171 C88.66049918 167.60734222 91.56509266 166.68445763 96.4375 166.4375 C101.01814893 166.63069744 104.12232689 167.38863149 107.625 170.39453125 C110.13102136 173.32059597 111.44058028 176.18395836 112 180 C111.79783959 181.67314343 111.54564464 183.34082188 111.25 185 C110.74651432 188.62311446 110.74651432 188.62311446 112.15527344 191.88671875 C112.71762695 192.48097656 113.27998047 193.07523438 113.859375 193.6875 C114.50229492 194.37457031 115.14521484 195.06164062 115.80761719 195.76953125 C116.53110352 196.50558594 117.25458984 197.24164063 118 198 C118.7724707 198.78761719 119.54494141 199.57523438 120.34082031 200.38671875 C122.87802882 202.94096896 125.43519432 205.47347501 128 208 C133.26031206 213.18179994 138.39250747 218.37060882 143.19921875 223.9765625 C146.77825901 227.99813052 150.66457869 231.72516986 154.5 235.5 C159.66315545 240.58158902 164.72455785 245.66520085 169.41210938 251.19335938 C169.93611328 251.78955078 170.46011719 252.38574219 171 253 C171.54517273 253.68789612 172.09034546 254.37579224 172.65203857 255.08453369 C175.89382831 257.7291849 178.00375974 257.48273269 182.15527344 257.45410156 C182.86786819 257.45468567 183.58046295 257.45526978 184.31465149 257.45587158 C186.6633931 257.45309109 189.0108559 257.42200323 191.359375 257.390625 C192.99032905 257.38316243 194.62129207 257.37746957 196.2522583 257.37347412 C200.53998677 257.35821892 204.82717119 257.31893854 209.11468506 257.2746582 C213.49174643 257.23370277 217.86889591 257.21546255 222.24609375 257.1953125 C230.83097852 257.15244377 239.41542154 257.08419435 248 257 C236.27631005 245.25289918 224.54972078 233.5087015 212.81971741 221.76790524 C207.37274792 216.31579015 201.92671401 210.86274676 196.48291016 205.4074707 C191.73540088 200.6499614 186.9861075 195.89424146 182.23470688 191.14061838 C179.72139987 188.62601327 177.20896557 186.11055052 174.69866943 183.59293938 C171.88911181 180.775262 169.07557049 177.96158276 166.26171875 175.14819336 C165.43956375 174.32244308 164.61740875 173.49669281 163.77033997 172.6459198 C160.27320331 169.15497277 156.760982 165.73994851 153.01501465 162.51600647 C148.27980644 158.43726478 143.90189431 154.02641239 139.49804688 149.59570312 C138.09366785 148.1890826 136.68928869 146.78246221 135.28490448 145.37584686 C133.79066782 143.87826072 132.29768688 142.3794332 130.80506897 140.88023376 C127.67976764 137.74129529 124.55055293 134.6062772 121.42077637 131.47180176 C114.21383526 124.25286972 107.01193965 117.02891102 99.81009674 109.80489349 C93.20397276 103.17853399 86.59676097 96.55326865 79.98547602 89.93205786 C76.88112039 86.822752 73.77921165 83.71103257 70.67922211 80.59737396 C69.21189766 79.12435393 67.74340637 77.65250897 66.2743988 76.1811676 C64.49277767 74.39670286 62.71293187 72.61046288 60.93531799 70.82200623 C56.65887322 66.54518404 52.30609002 62.4379033 47.72080231 58.4939785 C45.5960942 56.64933416 43.58947294 54.70970764 41.60351562 52.71704102 C40.8433313 51.95678116 40.08314697 51.1965213 39.29992676 50.41322327 C38.51001343 49.61814865 37.7201001 48.82307404 36.90625 48.00390625 C36.07411987 47.17036118 35.24198975 46.3368161 34.38464355 45.47801208 C31.75405065 42.84186738 29.12697559 40.20224895 26.5 37.5625 C24.70596145 35.76344021 22.91169285 33.9646098 21.1171875 32.16601562 C16.74169339 27.78041178 12.37098385 23.39011753 8 19 C7.67 32.2 7.34 45.4 7 59 C8.98 59 10.96 59 13 59 C13 61.64 13 64.28 13 67 C11.02 67 9.04 67 7 67 C7 89.77 7 112.54 7 136 C4.69 136 2.38 136 0 136 C0 113.23 0 90.46 0 67 C-22.47476831 67.00312127 -22.47476831 67.00312127 -44.94921875 67.0625 C-54.1122065 67.09921235 -63.27491636 67.12966573 -72.43798828 67.12011719 C-79.11099099 67.1131918 -85.78356378 67.12720997 -92.45646071 67.16643608 C-95.99025226 67.18647623 -99.52336857 67.19598828 -103.05719757 67.18042374 C-107.00109798 67.16344531 -110.94388693 67.19322359 -114.88769531 67.22705078 C-116.64743935 67.20871941 -116.64743935 67.20871941 -118.44273376 67.1900177 C-121.41952823 67.23619584 -124.10237172 67.31694238 -127 68 C-129.74450692 70.76542567 -129.74450692 70.76542567 -131 74 C-134.7984017 77.11517742 -138.7386119 78.33784471 -143.625 78 C-148.84990523 77.09915427 -152.31356155 74.85508229 -155.875 70.9375 C-157.96016521 65.49290195 -158.00049131 59.47489956 -155.8125 54.0625 C-152.80778386 50.64334026 -149.50679615 47.2750262 -144.828125 46.76171875 C-138.96426883 46.59291077 -135.63610461 47.04234972 -131 51 C-130.401875 51.474375 -129.80375 51.94875 -129.1875 52.4375 C-128 54 -128 54 -127 59 C-85.09 59 -43.18 59 0 59 C0 39.53 0 20.06 0 0 Z M-148 57 C-149.73318664 59.36343632 -150.01080944 60.56762249 -149.9375 63.5 C-148.64802215 66.93860759 -147.16374258 68.17205985 -144 70 C-140.80553105 69.93611062 -138.86220568 69.56489338 -136.1875 67.8125 C-134.43510662 65.13779432 -134.06388938 63.19446895 -134 60 C-135.80674448 56.87294224 -137.0845427 55.37557223 -140.4375 54 C-143.82408012 54 -145.35281804 54.92518171 -148 57 Z M174 137 C172.78488202 139.69061839 172.93119386 140.75917853 173.75 143.625 C174.90769383 146.28364637 174.90769383 146.28364637 178 148 C182.05480401 148.61703539 183.54369977 148.32038101 186.9375 145.9375 C189.3369117 143.10359033 189.3369117 143.10359033 189.0625 139.375 C188.25872405 136.03623166 188.25872405 136.03623166 186.3125 134.0625 C181.03593807 131.63813371 177.473677 132.36843067 174 137 Z M90 177 C88.341404 179.80896063 88.341404 179.80896063 88 183 C89.53920175 186.56446721 90.74271659 187.82847773 94 190 C97.05797482 189.80887657 99.23098526 189.50383725 101.8125 187.8125 C103.56489338 185.13779432 103.93611062 183.19446895 104 180 C102.19325552 176.87294224 100.9154573 175.37557223 97.5625 174 C94.10806994 174 92.64235132 174.78613808 90 177 Z " fill="#AC3B67" transform="translate(261,26)"/>
<path d="M0 0 C4.55261668 3.00058827 6.71968259 5.95758459 8.125 11.1875 C8.92585284 15.61790607 8.70941353 18.65854332 6.75 22.8125 C4.63931172 25.15081152 2.44644528 27.17301323 -0.25 28.8125 C-1.24 28.8125 -2.23 28.8125 -3.25 28.8125 C-3.25 69.4025 -3.25 109.9925 -3.25 151.8125 C-22.72 151.8125 -42.19 151.8125 -62.25 151.8125 C-62.25 127.7225 -62.25 103.6325 -62.25 78.8125 C-74.150625 78.833125 -86.05125 78.85375 -98.3125 78.875 C-102.05988525 78.863479 -105.80727051 78.85195801 -109.66821289 78.84008789 C-113.049106 78.86330046 -113.049106 78.86330046 -116.42991638 78.89573669 C-117.92707827 78.90569564 -119.42437084 78.90202997 -120.92149353 78.88731384 C-129.69873096 78.55641105 -129.69873096 78.55641105 -137.76843262 81.35768127 C-139.51992165 83.08837874 -140.89123704 84.76710674 -142.25 86.8125 C-142.87648438 87.49957031 -143.50296875 88.18664062 -144.1484375 88.89453125 C-144.63570313 89.46558594 -145.12296875 90.03664063 -145.625 90.625 C-148.29676542 93.72209131 -151.00780378 96.777493 -153.75 99.8125 C-158.64367925 105.24078286 -163.46858389 110.72022266 -168.2109375 116.28125 C-168.74162842 116.90290039 -169.27231934 117.52455078 -169.8190918 118.16503906 C-170.87686347 119.40519617 -171.93308385 120.64667854 -172.98754883 121.88964844 C-173.96416316 123.03507411 -174.95058687 124.17222612 -175.94775391 125.29980469 C-177.37813651 126.91579326 -177.37813651 126.91579326 -178.97265625 129.21875 C-182.79281428 131.89220536 -186.9733057 131.22733761 -191.5 131.0625 C-192.43585938 131.04445313 -193.37171875 131.02640625 -194.3359375 131.0078125 C-196.64167015 130.96075673 -198.94530945 130.89503713 -201.25 130.8125 C-201.34539062 131.57046875 -201.44078125 132.3284375 -201.5390625 133.109375 C-202.35217801 136.20100099 -203.1699186 137.09429128 -205.625 139.0625 C-206.53378906 139.81273437 -206.53378906 139.81273437 -207.4609375 140.578125 C-211.34807549 143.26008047 -215.69345417 143.52598049 -220.25 142.8125 C-224.55126088 141.03689053 -227.51358715 138.82506767 -230.25 135.0625 C-231.95964846 129.50614249 -232.33522171 124.3182686 -229.6875 119 C-227.27469653 115.35962985 -224.37758158 113.21905924 -220.25 111.8125 C-214.95283146 110.91085429 -210.72160542 111.83142972 -206.25 114.8125 C-204.27494312 116.71981087 -202.85740502 118.54322233 -201.25 120.8125 C-201.25 121.8025 -201.25 122.7925 -201.25 123.8125 C-191.32583891 124.41411986 -191.32583891 124.41411986 -182.4296875 120.80078125 C-180.17818523 118.23940323 -178.19970618 115.60884268 -176.25 112.8125 C-175.10220106 111.46289025 -173.93653601 110.12818278 -172.75 108.8125 C-172.193125 108.173125 -171.63625 107.53375 -171.0625 106.875 C-168.21852205 103.63874923 -165.32387299 100.44841332 -162.4375 97.25 C-159.95495732 94.48373816 -157.51059777 91.68630302 -155.0703125 88.8828125 C-152.23544631 85.65860846 -149.34728581 82.48279665 -146.4609375 79.3046875 C-144.14460695 76.80651656 -144.14460695 76.80651656 -142.16365051 73.6993103 C-140.60890596 71.84575474 -139.70013999 70.94196787 -137.35959435 70.26878738 C-135.02651648 70.07380143 -132.76120666 70.07004339 -130.4206543 70.13134766 C-129.54210281 70.1304715 -128.66355133 70.12959534 -127.75837708 70.12869263 C-124.86274407 70.13286332 -121.96944554 70.1794898 -119.07421875 70.2265625 C-117.06355556 70.2377565 -115.05287597 70.24629572 -113.04219055 70.25228882 C-107.75636416 70.27517095 -102.47153086 70.33408946 -97.18609619 70.4005127 C-91.79021641 70.46194817 -86.39417577 70.48930657 -80.99804688 70.51953125 C-70.41492884 70.58383281 -59.83254708 70.68620534 -49.25 70.8125 C-49.25 73.4525 -49.25 76.0925 -49.25 78.8125 C-51.23 78.8125 -53.21 78.8125 -55.25 78.8125 C-55.25 100.2625 -55.25 121.7125 -55.25 143.8125 C-40.73 143.8125 -26.21 143.8125 -11.25 143.8125 C-11.25 105.8625 -11.25 67.9125 -11.25 28.8125 C-12.9 28.4825 -14.55 28.1525 -16.25 27.8125 C-19.41951331 25.06718923 -22.06655946 21.65291983 -22.48828125 17.421875 C-22.60685234 12.85376758 -22.60092188 9.58452814 -20.6875 5.375 C-14.63210081 -0.99093248 -8.56625643 -3.12997831 0 0 Z M-12.5625 8.5 C-14.47678628 11.1232812 -15.17078375 12.5646338 -15.25 15.8125 C-13.49886475 19.52511227 -13.49886475 19.52511227 -10.25 21.8125 C-6.21808695 22.35008841 -4.6880964 22.1200996 -1.3125 19.75 C1.0869117 16.91609033 1.0869117 16.91609033 0.8125 13.1875 C0.00872405 9.84873166 0.00872405 9.84873166 -1.9375 7.875 C-5.9687436 6.022807 -8.92090846 5.84262239 -12.5625 8.5 Z M-221.625 121.375 C-223.87340519 124.74760779 -223.81783945 126.83762383 -223.25 130.8125 C-221.77006844 133.37588689 -221.77006844 133.37588689 -219.25 134.8125 C-216.29308291 135.56265195 -216.29308291 135.56265195 -213.25 134.8125 C-210.16666667 132.89583333 -210.16666667 132.89583333 -208.25 129.8125 C-208.18358446 125.96039873 -208.37770843 123.81401995 -210.9375 120.875 C-214.95878369 119.02738317 -217.88874458 118.91693723 -221.625 121.375 Z " fill="#8E3C7B" transform="translate(323.25,140.1875)"/>
<path d="M0 0 C8.48422149 7.65984369 11.73607717 18.34729693 12.3125 29.45703125 C12.73272946 43.98920546 12.23551195 58.38053249 1.9296875 69.7421875 C-8.55450221 78.89824569 -22.61023856 80.6279268 -36.0703125 79.7421875 C-47.90048921 77.99906287 -57.401064 75.27005489 -65.0703125 65.7421875 C-73.55576069 53.14999997 -73.75984973 35.76090856 -71.53125 21.2265625 C-70.87065381 18.62773354 -70.08268935 16.22272992 -69.0703125 13.7421875 C-68.80347656 13.03320312 -68.53664063 12.32421875 -68.26171875 11.59375 C-64.78882219 3.53662998 -58.9282246 -1.74859611 -50.9453125 -5.1953125 C-35.04563056 -11.41601034 -13.92545617 -10.25280839 0 0 Z M-46.0078125 13.3046875 C-52.73984312 22.06902925 -52.87447552 32.05021725 -52.0703125 42.7421875 C-50.95857746 50.75469232 -48.22094416 56.39976802 -42.0703125 61.7421875 C-36.75888971 64.87456504 -30.40259937 65.18797608 -24.4453125 64.0546875 C-19.34333537 62.69591352 -15.53198741 61.08324406 -12.62890625 56.43359375 C-7.2134701 46.05015066 -6.14040695 33.47152417 -9.3203125 22.1171875 C-11.33048224 16.59616829 -13.49882902 12.36177948 -18.7578125 9.4296875 C-28.12229962 5.31000555 -38.60273003 5.60340173 -46.0078125 13.3046875 Z " fill="#3A3A3A" transform="translate(773.0703125,117.2578125)"/>
<path d="M0 0 C8.04375 -0.061875 16.0875 -0.12375 24.375 -0.1875 C26.89431152 -0.21481201 29.41362305 -0.24212402 32.00927734 -0.27026367 C34.03482587 -0.27903604 36.06037974 -0.2866782 38.0859375 -0.29296875 C39.11436768 -0.30831665 40.14279785 -0.32366455 41.20239258 -0.33947754 C51.34715174 -0.34310499 60.2225161 1.52726251 67.77734375 8.68359375 C77.57156454 18.97477289 79.4914291 32.62472455 79.25 46.37109375 C78.60707565 55.70354253 77.07731783 64.65106947 71 72 C70.2265625 72.93779297 70.2265625 72.93779297 69.4375 73.89453125 C63.51639086 80.40501005 56.67428161 83.18367183 48 84 C44.27143637 84.13014248 40.54685324 84.11672975 36.81640625 84.09765625 C35.87986206 84.09664917 34.94331787 84.09564209 33.97839355 84.09460449 C30.50641644 84.08940377 27.03445689 84.07544267 23.5625 84.0625 C15.786875 84.041875 8.01125 84.02125 0 84 C0 56.28 0 28.56 0 0 Z M19 15 C19 32.49 19 49.98 19 68 C36.44969501 70.20916915 36.44969501 70.20916915 52.875 64.8125 C59.90506704 55.50799951 59.75300234 44.18621111 58.7265625 33.02734375 C57.81022754 26.7426691 56.43092854 22.62357761 52 18 C41.52262905 13.53698566 41.52262905 13.53698566 19 15 Z " fill="#3A3A3A" transform="translate(798,111)"/>
<path d="M0 0 C6.27 0 12.54 0 19 0 C19 10.89 19 21.78 19 33 C29.23 33 39.46 33 50 33 C50 22.11 50 11.22 50 0 C55.94 0 61.88 0 68 0 C68 27.72 68 55.44 68 84 C62.06 84 56.12 84 50 84 C50 72.45 50 60.9 50 49 C39.77 49 29.54 49 19 49 C19 60.55 19 72.1 19 84 C12.73 84 6.46 84 0 84 C0 56.28 0 28.56 0 0 Z " fill="#3A3A3A" transform="translate(976,111)"/>
<path d="M0 0 C6.27 0 12.54 0 19 0 C19.33 11.88 19.66 23.76 20 36 C26.54634563 28.45244857 32.99723384 20.89772502 39.08129883 12.97216797 C39.91890685 11.88685818 40.76906337 10.81112436 41.63110352 9.74511719 C43.06338057 7.96331722 43.06338057 7.96331722 44.46069336 5.82519531 C46.8946549 2.50251634 48.6032105 0.32648305 52.71362305 -0.63427734 C55.82620372 -0.7867034 58.82812088 -0.70072963 61.9375 -0.5 C63.53561523 -0.44585937 63.53561523 -0.44585937 65.16601562 -0.390625 C67.78111316 -0.29680984 70.38863981 -0.16573994 73 0 C69.36403893 4.93801754 65.62859756 9.73082683 61.625 14.375 C57.61876668 19.06754929 53.6740273 23.7950689 49.8671875 28.65234375 C48.57456873 30.277582 47.24331824 31.87255738 45.8828125 33.44140625 C45.22023438 34.22386719 44.55765625 35.00632813 43.875 35.8125 C43.27429688 36.49957031 42.67359375 37.18664062 42.0546875 37.89453125 C40.73356949 39.98265421 40.73356949 39.98265421 41.51953125 42.40234375 C43.29094632 45.51049947 45.44187969 48.09574071 47.8125 50.75 C52.94384664 56.64081014 57.71713364 62.75289877 62.4074707 68.99902344 C65.42608896 73.00355562 68.53735494 76.84104824 71.9050293 80.55908203 C73 82 73 82 73 84 C52.74994602 86.04338376 52.74994602 86.04338376 47.04296875 82.93359375 C43.91361923 80.09534652 41.9759492 76.54743007 40.02880859 72.83886719 C38.32258804 69.78921052 36.12260985 67.15361415 33.9375 64.4375 C29.22764289 58.33703482 24.62607151 52.16809534 20 46 C19.67 58.54 19.34 71.08 19 84 C12.73 84 6.46 84 0 84 C0 56.28 0 28.56 0 0 Z " fill="#3A3A3A" transform="translate(626,111)"/>
<path d="M0 0 C0.83265381 0.00523682 1.66530762 0.01047363 2.52319336 0.01586914 C3.42231445 0.0190918 4.32143555 0.02231445 5.24780273 0.02563477 C6.66609375 0.03820312 6.66609375 0.03820312 8.11303711 0.05102539 C9.06243164 0.05553711 10.01182617 0.06004883 10.98999023 0.06469727 C13.34356776 0.07652429 15.69702188 0.09300514 18.05053711 0.11352539 C40.95278094 52.62613195 40.95278094 52.62613195 48.48803711 70.80102539 C48.97046875 71.96013428 49.45290039 73.11924316 49.94995117 74.31347656 C53.05053711 81.85686026 53.05053711 81.85686026 53.05053711 84.11352539 C46.12053711 84.11352539 39.19053711 84.11352539 32.05053711 84.11352539 C30.89553711 81.18477539 29.74053711 78.25602539 28.55053711 75.23852539 C28.18508789 74.31700684 27.81963867 73.39548828 27.44311523 72.44604492 C27.15887695 71.7201416 26.87463867 70.99423828 26.58178711 70.24633789 C26.28852539 69.50270996 25.99526367 68.75908203 25.69311523 67.99291992 C25.05053711 66.11352539 25.05053711 66.11352539 25.05053711 64.11352539 C7.72553711 64.60852539 7.72553711 64.60852539 -9.94946289 65.11352539 C-12.21104221 70.99119193 -12.21104221 70.99119193 -14.46679688 76.87109375 C-14.7485376 77.59949463 -15.03027832 78.32789551 -15.32055664 79.07836914 C-15.60858154 79.82723389 -15.89660645 80.57609863 -16.19335938 81.34765625 C-16.94946289 83.11352539 -16.94946289 83.11352539 -17.94946289 84.11352539 C-19.36516412 84.2000415 -20.78505789 84.22057443 -22.20336914 84.21118164 C-23.05737305 84.20795898 -23.91137695 84.20473633 -24.79125977 84.20141602 C-25.6890918 84.19303711 -26.58692383 84.1846582 -27.51196289 84.17602539 C-28.41366211 84.17151367 -29.31536133 84.16700195 -30.24438477 84.16235352 C-32.47947603 84.15052764 -34.71443726 84.13404759 -36.94946289 84.11352539 C-36.25232865 79.04275727 -34.18753446 74.60657154 -32.18774414 69.94165039 C-31.80489761 69.03813843 -31.42205109 68.13462646 -31.02760315 67.20373535 C-29.77690084 64.2550593 -28.5195515 61.30927027 -27.26196289 58.36352539 C-26.40038867 56.33668091 -25.53922585 54.3096615 -24.6784668 52.2824707 C-22.94014455 48.1900431 -21.19933096 44.09868835 -19.45678711 40.00805664 C-17.16321852 34.62081954 -14.88370699 29.22775926 -12.60961914 23.83227539 C-11.64979146 21.55774287 -10.68973597 19.28330667 -9.72958374 17.00891113 C-9.12724409 15.58120024 -8.52553679 14.1532224 -7.92446899 12.72497559 C-7.09915704 10.76497159 -6.27081972 8.80627499 -5.44165039 6.84790039 C-4.98129395 5.75703125 -4.5209375 4.66616211 -4.04663086 3.54223633 C-2.51252644 0.14631494 -2.51252644 0.14631494 0 0 Z M6.05053711 20.11352539 C4.62210799 23.77805391 3.19806035 27.44425108 1.77807617 31.11206055 C1.05611864 32.97412954 0.33068473 34.83484946 -0.39477539 36.69555664 C-0.84594727 37.8621582 -1.29711914 39.02875977 -1.76196289 40.23071289 C-2.1809082 41.30949707 -2.59985352 42.38828125 -3.03149414 43.49975586 C-4.05991723 45.96631297 -4.05991723 45.96631297 -3.94946289 48.11352539 C3.64053711 48.11352539 11.23053711 48.11352539 19.05053711 48.11352539 C17.40591531 43.82139083 15.75989824 39.52980065 14.11303711 35.23852539 C13.64446289 34.01520508 13.17588867 32.79188477 12.69311523 31.53149414 C12.24516602 30.36489258 11.7972168 29.19829102 11.33569336 27.99633789 C10.92198486 26.91755371 10.50827637 25.83876953 10.08203125 24.72729492 C9.12317239 22.18574672 9.12317239 22.18574672 8.05053711 20.11352539 C7.39053711 20.11352539 6.73053711 20.11352539 6.05053711 20.11352539 Z " fill="#3A3A3A" transform="translate(915.949462890625,110.886474609375)"/>
<path d="M0 0 C0.83265381 0.00523682 1.66530762 0.01047363 2.52319336 0.01586914 C3.42231445 0.0190918 4.32143555 0.02231445 5.24780273 0.02563477 C6.66609375 0.03820312 6.66609375 0.03820312 8.11303711 0.05102539 C9.06243164 0.05553711 10.01182617 0.06004883 10.98999023 0.06469727 C13.34356776 0.07652429 15.69702188 0.09300514 18.05053711 0.11352539 C26.54024065 18.8364694 34.58815767 37.73407964 42.54980469 56.68652344 C42.94968094 57.63789688 43.34955719 58.58927032 43.7615509 59.56947327 C44.51105954 61.35351468 45.25965684 63.13793938 46.00712585 64.9228363 C48.02332712 69.72498335 50.10910969 74.47947742 52.32055664 79.19540405 C53.05053711 81.11352539 53.05053711 81.11352539 53.05053711 84.11352539 C46.45053711 84.11352539 39.85053711 84.11352539 33.05053711 84.11352539 C29.05053711 76.11352539 29.05053711 76.11352539 25.05053711 65.11352539 C13.50053711 65.11352539 1.95053711 65.11352539 -9.94946289 65.11352539 C-12.25946289 71.38352539 -14.56946289 77.65352539 -16.94946289 84.11352539 C-23.54946289 84.11352539 -30.14946289 84.11352539 -36.94946289 84.11352539 C-35.07259113 77.53215023 -32.92166522 71.30245522 -30.17602539 65.03930664 C-29.8155159 64.20412506 -29.45500641 63.36894348 -29.08357239 62.50845337 C-27.91874726 59.81216963 -26.74661036 57.11913281 -25.57446289 54.42602539 C-23.9509096 50.67448241 -22.33108121 46.9213347 -20.71118164 43.16821289 C-20.30756912 42.23450363 -19.9039566 41.30079437 -19.4881134 40.33879089 C-15.1515289 30.29427014 -10.93517087 20.2003329 -6.74682617 10.09326172 C-6.25553223 8.91272217 -5.76423828 7.73218262 -5.25805664 6.51586914 C-4.83322998 5.48969482 -4.40840332 4.46352051 -3.97070312 3.40625 C-2.5188046 0.14668054 -2.5188046 0.14668054 0 0 Z M7.05053711 19.11352539 C2.90410045 28.63565206 -0.54741121 38.30295775 -3.94946289 48.11352539 C3.64053711 48.11352539 11.23053711 48.11352539 19.05053711 48.11352539 C13.60553711 33.75852539 13.60553711 33.75852539 8.05053711 19.11352539 C7.72053711 19.11352539 7.39053711 19.11352539 7.05053711 19.11352539 Z " fill="#3A3A3A" transform="translate(565.949462890625,110.886474609375)"/>
<path d="M0 0 C3.53046345 2.30247616 5.43863508 4.43542599 7.875 7.875 C7.875 8.865 7.875 9.855 7.875 10.875 C8.76638672 10.8121582 8.76638672 10.8121582 9.67578125 10.74804688 C26.59682384 9.70857381 26.59682384 9.70857381 31.8046875 12.375 C33.80813275 14.434767 35.27565378 16.48703607 36.875 18.875 C42.37959056 25.67176652 48.65615039 31.74368111 54.875 37.875 C65.52428906 48.3743996 65.52428906 48.3743996 69.625 53.125 C70.17663818 53.75011475 70.72827637 54.37522949 71.29663086 55.01928711 C72.875 56.875 72.875 56.875 74.33032227 58.88891602 C77.01802923 62.2342489 78.86117543 63.67647513 83.14404297 64.51513672 C87.04321182 64.78717175 90.90743963 64.84696614 94.8125 64.8125 C96.17776829 64.82562602 97.54301033 64.84187441 98.90820312 64.86132812 C102.23150373 64.89655746 105.55169826 64.90012593 108.875 64.875 C108.875 67.185 108.875 69.495 108.875 71.875 C106.895 71.875 104.915 71.875 102.875 71.875 C102.875 78.805 102.875 85.735 102.875 92.875 C100.565 92.875 98.255 92.875 95.875 92.875 C95.875 85.945 95.875 79.015 95.875 71.875 C93.11125 72.41125 90.3475 72.9475 87.5 73.5 C81.73456018 73.9866135 77.09447044 73.02624717 72.48876953 69.45214844 C64.21000943 62.3868632 56.99598886 54.07767324 49.875 45.875 C49.20855469 45.11695068 48.54210937 44.35890137 47.85546875 43.57788086 C45.53075842 40.93121136 43.21737993 38.27642875 40.93139648 35.59619141 C31.24903806 23.6445592 31.24903806 23.6445592 17.54443359 18.26928711 C14.25960383 18.24167469 11.13270039 18.43789083 7.875 18.875 C7.58367187 19.65488281 7.29234375 20.43476563 6.9921875 21.23828125 C5.12470645 25.64579771 2.21684506 28.03684662 -2.125 29.875 C-7.74436904 30.66171167 -12.34751498 30.09702478 -17.125 26.875 C-21.4503793 22.19891427 -22.50570933 18.43852168 -22.39453125 12.22265625 C-21.95616145 8.40439172 -20.73582696 5.69791095 -18.125 2.875 C-12.40831398 -1.3164097 -6.78093529 -2.44113671 0 0 Z M-14.125 10.875 C-14.76234462 14.84069988 -14.74499672 16.90780512 -12.5625 20.3125 C-9.15780512 22.49499672 -7.09069988 22.51234462 -3.125 21.875 C-0.44661427 19.94373898 -0.44661427 19.94373898 0.875 16.875 C0.875 13.02550705 0.74089381 10.83366815 -1.875 7.9375 C-7.03197084 5.50226377 -10.36153435 6.68142399 -14.125 10.875 Z " fill="#B33A62" transform="translate(165.125,108.125)"/>
<path d="M0 0 C4.70600353 1.68705787 7.25581658 3.83290666 10 8 C10.37092593 9.32336799 10.71183497 10.65618089 11 12 C11.87616974 11.98445572 12.75233948 11.96891144 13.65505981 11.95289612 C21.92349348 11.81247334 30.19152517 11.70598045 38.46087837 11.6373148 C42.7120677 11.60082502 46.96226961 11.55135654 51.21289062 11.47192383 C55.31729666 11.39570597 59.42075483 11.3539777 63.52581406 11.3358593 C65.08959753 11.3229529 66.65333071 11.29774771 68.21670914 11.2598896 C70.41269038 11.20884126 72.60478775 11.20208419 74.80126953 11.20532227 C76.04925323 11.18977798 77.29723694 11.1742337 78.58303833 11.15821838 C82 12 82 12 88 19 C62.59 19 37.18 19 11 19 C10.34 20.98 9.68 22.96 9 25 C4.92240139 28.96739324 1.20963153 30.79912441 -4.4375 31.3125 C-9.51026033 30.86752102 -12.56143539 29.35864435 -16.25 25.875 C-19.31898496 20.83309614 -20.25685381 16.16491069 -19.5625 10.3125 C-15.56932931 1.84697813 -8.890282 -0.82456241 0 0 Z M-12 13 C-12.06641554 16.85210127 -11.87229157 18.99848005 -9.3125 21.9375 C-6.17816119 23.37760162 -4.41375407 23.62701605 -1 23 C2.0666006 20.43680241 2.0666006 20.43680241 4 17 C4.07952134 13.66010351 3.27001739 12.37002382 1.3125 9.6875 C-0.93405641 7.79589614 -0.93405641 7.79589614 -3.9375 7.4375 C-8.12178713 8.20604253 -9.56927503 9.53805838 -12 13 Z " fill="#B03C66" transform="translate(135,161)"/>
<path d="M0 0 C0.79731033 -0.00569504 1.59462067 -0.01139008 2.41609192 -0.01725769 C5.04238375 -0.02834176 7.6661673 0.00365647 10.29223633 0.03735352 C12.11875618 0.04093087 13.94528162 0.04228799 15.77180481 0.04151917 C19.5943165 0.04620637 23.4159823 0.07102052 27.23828125 0.11132812 C32.14480071 0.1624069 37.05039432 0.17376781 41.95714855 0.17149258 C45.72578313 0.17230694 49.49421414 0.18873657 53.26278114 0.2104969 C55.07252779 0.22005975 56.88229754 0.22595979 58.6920681 0.22817802 C61.21568799 0.23466046 63.73831183 0.26086809 66.26171875 0.29296875 C67.38929092 0.29092941 67.38929092 0.29092941 68.53964233 0.28884888 C70.61686707 0.32762146 70.61686707 0.32762146 73.93676758 0.72875977 C74.92676758 2.21375977 74.92676758 2.21375977 75.93676758 3.72875977 C50.52676758 3.72875977 25.11676758 3.72875977 -1.06323242 3.72875977 C-1.72323242 5.70875977 -2.38323242 7.68875977 -3.06323242 9.72875977 C-7.14083103 13.696153 -10.85360089 15.52788417 -16.50073242 16.04125977 C-21.68904286 15.58614481 -24.74875685 14.0787617 -28.37573242 10.35375977 C-30.07808594 7.70565429 -30.70873445 5.83061706 -31.06323242 2.72875977 C-25.75764074 2.37505365 -25.75764074 2.37505365 -23.06323242 2.72875977 C-21.69012535 4.02109584 -20.35288418 5.35313122 -19.06323242 6.72875977 C-16.10663369 7.56225927 -16.10663369 7.56225927 -13.06323242 6.72875977 C-11.98044258 5.24696983 -11.98044258 5.24696983 -10.8757782 3.73524475 C-7.84849412 -0.05895311 -4.63004844 -0.10468262 0 0 Z " fill="#973D78" transform="translate(147.063232421875,176.271240234375)"/>
<path d="M0 0 C4.70081586 1.68519814 7.23460436 3.85190655 10 8 C10 8.66 10 9.32 10 10 C8.54176788 10.0270043 7.08339325 10.04639787 5.625 10.0625 C4.81289062 10.07410156 4.00078125 10.08570313 3.1640625 10.09765625 C1 10 1 10 -1 9 C-4.6216958 8.60633741 -6.36349317 8.54774515 -9.375 10.6875 C-11.27258004 13.38790237 -11.35882213 14.77060081 -11 18 C-13.64 18 -16.28 18 -19 18 C-20.62769361 13.93076598 -19.63222101 10.94453411 -18 7 C-12.466506 1.04085262 -8.05515972 -0.74710588 0 0 Z " fill="#DD3845" transform="translate(135,161)"/>
<path d="M0 0 C1.32 0 2.64 0 4 0 C4.50559908 1.43554025 5.0042749 2.8735202 5.5 4.3125 C5.7784375 5.11300781 6.056875 5.91351563 6.34375 6.73828125 C7 9 7 9 7 12 C7.66 12 8.32 12 9 12 C9.13277344 11.30132812 9.26554688 10.60265625 9.40234375 9.8828125 C9.57894531 8.97273437 9.75554688 8.06265625 9.9375 7.125 C10.19853516 5.76761719 10.19853516 5.76761719 10.46484375 4.3828125 C11 2 11 2 12 0 C13.32 0 14.64 0 16 0 C16.99 3.3 17.98 6.6 19 10 C20.53521956 7.69717067 21.58357909 5.82137765 22.625 3.3125 C23.07875 2.219375 23.5325 1.12625 24 0 C24.99 0 25.98 0 27 0 C25.70024676 6.71539173 23.70071112 12.72019113 21 19 C19.109375 18.78515625 19.109375 18.78515625 17 18 C15.53257498 15.10347822 14.88549685 12.14351383 14 9 C12.68 12.3 11.36 15.6 10 19 C8.68 19 7.36 19 6 19 C4.99619084 16.20964954 3.9968055 13.41785145 3 10.625 C2.57074219 9.43390625 2.57074219 9.43390625 2.1328125 8.21875 C1.86210938 7.45820313 1.59140625 6.69765625 1.3125 5.9140625 C1.06113281 5.2123291 0.80976562 4.5105957 0.55078125 3.78759766 C0 2 0 2 0 0 Z " fill="#3A3A3A" transform="translate(647,206)"/>
<path d="M0 0 C5.30559168 -0.35370611 5.30559168 -0.35370611 8 0 C9.37310707 1.29233607 10.71034824 2.62437146 12 4 C15.08461971 4.50042146 15.08461971 4.50042146 18 4 C18.66 3.34 19.32 2.68 20 2 C22.3828125 1.8046875 22.3828125 1.8046875 25.125 1.875 C26.03507812 1.89304688 26.94515625 1.91109375 27.8828125 1.9296875 C28.58148438 1.95289063 29.28015625 1.97609375 30 2 C27.92370897 7.07537807 25.77026993 9.31672316 21 12 C16.29477445 13.56840852 12.47351184 13.54895539 7.8125 11.8125 C3.82679527 9.24393473 1.48497097 6.81864112 0.25 2.1875 C0.1675 1.465625 0.085 0.74375 0 0 Z " fill="#643E98" transform="translate(116,179)"/>
<path d="M0 0 C3.0625 1.9375 3.0625 1.9375 5 5 C6.03945854 9.75058323 5.669717 12.94141507 3.0625 17.0625 C-1.01833471 19.64425257 -4.2865958 19.97792124 -9 19 C-11.50160818 17.12379387 -12.61945652 15.76108697 -14 13 C-14.4200542 5.43902439 -14.4200542 5.43902439 -12 2 C-7.96514506 -0.68990329 -4.73771348 -0.77993882 0 0 Z M-8.1875 4.1875 C-10.13217067 5.91666347 -10.13217067 5.91666347 -11.0625 8.375 C-11.24593695 11.24375231 -11.24593695 11.24375231 -8.875 13.875 C-6.24402084 16.26004609 -6.24402084 16.26004609 -3.375 16 C-0.14013938 14.64936361 -0.14013938 14.64936361 2 12 C1.86737939 8.81710527 1.52580649 6.75115213 -0.3125 4.125 C-3.11132375 2.2591175 -5.34138502 2.64246615 -8.1875 4.1875 Z " fill="#3A3A3A" transform="translate(837,206)"/>
<path d="M0 0 C2.8100346 1.79363911 4.50940468 3.01880935 6 6 C6.39447548 10.18144011 6.45035186 12.30946048 4.125 15.875 C1.21289342 18.78710658 0.3997223 18.96068305 -3.8125 19.375 C-7.26985684 19.32471117 -7.96293342 19.02681412 -10.9375 16.875 C-13.25258338 13.64791407 -14 11.96239846 -14 8 C-11.2939634 0.96430485 -7.46804081 -1.22283709 0 0 Z M-8.25 4.6875 C-10.16162348 6.86488083 -10.16162348 6.86488083 -10.5 9.5 C-9.8252147 12.87392649 -8.83215614 14.06220896 -6 16 C-2.3014996 15.85205998 -0.64194427 15.64194427 2 13 C2.50007794 9.54213985 2.50007794 9.54213985 2 6 C0.36549876 3.94054984 0.36549876 3.94054984 -2 3 C-5.93541667 2.6 -5.93541667 2.6 -8.25 4.6875 Z " fill="#3A3A3A" transform="translate(977,206)"/>
<path d="M0 0 C2.16015625 0.546875 2.16015625 0.546875 5.22265625 3.109375 C7.46641334 7.09023436 7.89555678 9.05276066 7.16015625 13.546875 C5.3645322 16.30016521 4.10760703 18.07314961 1.16015625 19.546875 C-5.78247799 20.22975706 -5.78247799 20.22975706 -9.83984375 17.609375 C-12.17164356 14.03880654 -12.5856187 11.9018544 -12.3125 7.70703125 C-11.83984375 5.546875 -11.83984375 5.546875 -9.90234375 2.484375 C-6.34979141 0.23684189 -4.14803015 -0.2492973 0 0 Z M-7.08984375 5.234375 C-8.99146551 7.41588488 -8.99146551 7.41588488 -9.40234375 10.046875 C-9.01105194 12.75775998 -9.01105194 12.75775998 -6.65234375 14.921875 C-4.00239388 16.76574645 -4.00239388 16.76574645 -1.21484375 16.546875 C1.7352901 15.30471338 2.81782957 14.46840953 4.16015625 11.546875 C3.66015625 8.38020833 3.66015625 8.38020833 2.16015625 5.546875 C-1.47293031 3.12481729 -3.4660339 2.51651762 -7.08984375 5.234375 Z " fill="#3A3A3A" transform="translate(570.83984375,205.453125)"/>
<path d="M0 0 C5 1 5 1 7.01953125 3.28515625 C7.61121094 4.20167969 8.20289063 5.11820313 8.8125 6.0625 C9.41707031 6.98160156 10.02164063 7.90070313 10.64453125 8.84765625 C11.09183594 9.55792969 11.53914062 10.26820313 12 11 C12.33 7.37 12.66 3.74 13 0 C13.99 0 14.98 0 16 0 C16 6.27 16 12.54 16 19 C11 18 11 18 8.98046875 15.49609375 C8.38878906 14.48675781 7.79710937 13.47742188 7.1875 12.4375 C6.28064453 10.91962891 6.28064453 10.91962891 5.35546875 9.37109375 C4.90816406 8.58863281 4.46085938 7.80617187 4 7 C3.67 10.96 3.34 14.92 3 19 C2.01 19 1.02 19 0 19 C0 12.73 0 6.46 0 0 Z " fill="#3A3A3A" transform="translate(998,206)"/>
<path d="M0 0 C10.625 -0.25 10.625 -0.25 14 2 C14.875 4.875 14.875 4.875 15 8 C13.5625 10.375 13.5625 10.375 12 12 C12.7425 13.175625 12.7425 13.175625 13.5 14.375 C15 17 15 17 15 19 C12.6875 18.8125 12.6875 18.8125 10 18 C8.96986723 16.35178756 7.96885372 14.68496298 7 13 C4.91466367 12.12177688 4.91466367 12.12177688 3 12 C3 14.31 3 16.62 3 19 C2.01 19 1.02 19 0 19 C0 12.73 0 6.46 0 0 Z M3 3 C3 4.98 3 6.96 3 9 C7.14093698 9.20970559 7.14093698 9.20970559 11 8 C11 6.68 11 5.36 11 4 C8.29120665 2.64560332 5.99066732 2.93498549 3 3 Z " fill="#3A3A3A" transform="translate(717,206)"/>
<path d="M0 0 C2 1.3125 2 1.3125 3 3 C3 3.99 3 4.98 3 6 C1.68 6 0.36 6 -1 6 C-1.33 5.34 -1.66 4.68 -2 4 C-3.65 4.33 -5.3 4.66 -7 5 C-5.6993321 7.6013358 -4.69919978 7.64188008 -2 8.5625 C1.91008174 9.91008174 1.91008174 9.91008174 3 11 C3.1875 13.9375 3.1875 13.9375 3 17 C1 19 1 19 -1.05859375 19.265625 C-1.84363281 19.26046875 -2.62867188 19.2553125 -3.4375 19.25 C-4.61119141 19.25773437 -4.61119141 19.25773437 -5.80859375 19.265625 C-8 19 -8 19 -11 17 C-11 15.68 -11 14.36 -11 13 C-10.1646875 13.2165625 -10.1646875 13.2165625 -9.3125 13.4375 C-6.88615805 14.02769128 -4.45093655 14.523429 -2 15 C-1.67 14.34 -1.34 13.68 -1 13 C-1.55429688 12.80664062 -2.10859375 12.61328125 -2.6796875 12.4140625 C-3.40414063 12.15367187 -4.12859375 11.89328125 -4.875 11.625 C-5.95394531 11.24214844 -5.95394531 11.24214844 -7.0546875 10.8515625 C-9 10 -9 10 -11 8 C-11.3125 5 -11.3125 5 -11 2 C-7.20675288 -0.52883142 -4.45092058 -0.61200158 0 0 Z " fill="#3A3A3A" transform="translate(1041,206)"/>
<path d="M0 0 C1.9375 0.3359375 1.9375 0.3359375 4.9375 2.3359375 C4.9375 3.6559375 4.9375 4.9759375 4.9375 6.3359375 C4.380625 6.1915625 3.82375 6.0471875 3.25 5.8984375 C0.82365805 5.30824622 -1.61156345 4.8125085 -4.0625 4.3359375 C-4.3925 5.3259375 -4.7225 6.3159375 -5.0625 7.3359375 C-4.43601562 7.44550781 -3.80953125 7.55507812 -3.1640625 7.66796875 C-1.93816406 7.90580078 -1.93816406 7.90580078 -0.6875 8.1484375 C0.12460937 8.29925781 0.93671875 8.45007813 1.7734375 8.60546875 C3.9375 9.3359375 3.9375 9.3359375 5.9375 12.3359375 C5.6133631 15.65834074 5.32973697 16.94370053 2.9375 19.3359375 C-3.99725366 19.89519183 -3.99725366 19.89519183 -7.5625 18.0234375 C-9.0625 16.3359375 -9.0625 16.3359375 -9.0625 13.3359375 C-7.7425 13.3359375 -6.4225 13.3359375 -5.0625 13.3359375 C-4.7325 13.9959375 -4.4025 14.6559375 -4.0625 15.3359375 C-2.4125 15.3359375 -0.7625 15.3359375 0.9375 15.3359375 C0.9375 14.6759375 0.9375 14.0159375 0.9375 13.3359375 C0.29941406 13.10519531 -0.33867188 12.87445313 -0.99609375 12.63671875 C-7.74374393 9.97344965 -7.74374393 9.97344965 -9.3125 6.8359375 C-9.0625 4.3359375 -9.0625 4.3359375 -8.125 2.0234375 C-5.37574145 -0.22595586 -3.45909172 -0.0655131 0 0 Z " fill="#3A3A3A" transform="translate(803.0625,205.6640625)"/>
<path d="M0 0 C2 1.3125 2 1.3125 3 3 C3 3.99 3 4.98 3 6 C1.68 6 0.36 6 -1 6 C-1.33 5.34 -1.66 4.68 -2 4 C-3.32 4 -4.64 4 -6 4 C-6.33 4.99 -6.66 5.98 -7 7 C-4.98177083 7.45572917 -2.96354167 7.91145833 -0.9453125 8.3671875 C1 9 1 9 3 11 C3.25 14 3.25 14 3 17 C0.58513057 19.41486943 -0.12707789 19.2961925 -3.4375 19.3125 C-4.61119141 19.33763672 -4.61119141 19.33763672 -5.80859375 19.36328125 C-8.51138797 18.91522445 -9.40005607 18.19670758 -11 16 C-11 15.01 -11 14.02 -11 13 C-7.58978257 13.78697325 -4.31114834 14.87119943 -1 16 C-1 15.01 -1 14.02 -1 13 C-1.63808594 12.72285156 -2.27617188 12.44570312 -2.93359375 12.16015625 C-3.75988281 11.79792969 -4.58617187 11.43570313 -5.4375 11.0625 C-6.26121094 10.70285156 -7.08492187 10.34320313 -7.93359375 9.97265625 C-10 9 -10 9 -11 8 C-10.6875 4.5 -10.6875 4.5 -10 1 C-6.82137696 -0.58931152 -3.46088698 -0.40341627 0 0 Z " fill="#3A3A3A" transform="translate(541,206)"/>
<path d="M0 0 C4.62 0 9.24 0 14 0 C14 0.99 14 1.98 14 3 C10.7 3 7.4 3 4 3 C4 4.65 4 6.3 4 8 C6.64 8 9.28 8 12 8 C12 8.99 12 9.98 12 11 C9.36 11 6.72 11 4 11 C4 12.65 4 14.3 4 16 C7.3 16 10.6 16 14 16 C14 16.99 14 17.98 14 19 C9.38 19 4.76 19 0 19 C0 12.73 0 6.46 0 0 Z " fill="#3A3A3A" transform="translate(747,206)"/>
<path d="M0 0 C1.32 0 2.64 0 4 0 C6.31 5.94 8.62 11.88 11 18 C9.68 18.33 8.36 18.66 7 19 C6.67 17.68 6.34 16.36 6 15 C4.72125 15.103125 3.4425 15.20625 2.125 15.3125 C1.40570312 15.37050781 0.68640625 15.42851562 -0.0546875 15.48828125 C-2.39519216 15.87393036 -2.39519216 15.87393036 -4 19 C-4.99 19 -5.98 19 -7 19 C-6.31471486 14.85713983 -5.02109557 11.15886187 -3.5 7.25 C-3.0565625 6.10015625 -2.613125 4.9503125 -2.15625 3.765625 C-1 1 -1 1 0 0 Z M1 5 C0.34 7.31 -0.32 9.62 -1 12 C0.65 12 2.3 12 4 12 C3.42547254 8.06924356 3.42547254 8.06924356 1 5 Z " fill="#3A3A3A" transform="translate(692,206)"/>
<path d="M0 0 C0.99 0 1.98 0 3 0 C3.06058594 0.91523438 3.12117187 1.83046875 3.18359375 2.7734375 C3.26738281 3.96195313 3.35117187 5.15046875 3.4375 6.375 C3.51871094 7.55835938 3.59992187 8.74171875 3.68359375 9.9609375 C3.81084936 12.91518901 3.81084936 12.91518901 5 15 C6.66611905 15.042721 8.33382885 15.04063832 10 15 C11.94090826 13.05909174 11.39919435 9.52706098 11.5625 6.9375 C11.64628906 5.64714844 11.73007812 4.35679687 11.81640625 3.02734375 C11.87699219 2.02832031 11.93757812 1.02929688 12 0 C13.32 0 14.64 0 16 0 C16.05441656 1.89551022 16.09298035 3.7914792 16.125 5.6875 C16.14820313 6.74324219 16.17140625 7.79898438 16.1953125 8.88671875 C15.92656016 13.17063107 15.04732617 15.95267383 12 19 C4.98851894 19.67853042 4.98851894 19.67853042 1.7578125 17.4609375 C-0.63363032 14.11291755 -0.44393916 11.19591595 -0.25 7.25 C-0.23195313 6.55261719 -0.21390625 5.85523438 -0.1953125 5.13671875 C-0.14838554 3.42388461 -0.07664605 1.71176176 0 0 Z " fill="#3A3A3A" transform="translate(885,206)"/>
<path d="M0 0 C4.62 0 9.24 0 14 0 C14 0.99 14 1.98 14 3 C10.7 3 7.4 3 4 3 C4 4.65 4 6.3 4 8 C6.64 8 9.28 8 12 8 C12 8.99 12 9.98 12 11 C9.36 11 6.72 11 4 11 C4 13.64 4 16.28 4 19 C2.68 19 1.36 19 0 19 C0 12.73 0 6.46 0 0 Z " fill="#3A3A3A" transform="translate(593,206)"/>
<path d="M0 0 C5.30559168 -0.35370611 5.30559168 -0.35370611 8 0 C9.37310707 1.29233607 10.71034824 2.62437146 12 4 C15.08461971 4.50042146 15.08461971 4.50042146 18 4 C18.66 3.34 19.32 2.68 20 2 C22.3828125 1.8046875 22.3828125 1.8046875 25.125 1.875 C26.03507812 1.89304688 26.94515625 1.91109375 27.8828125 1.9296875 C28.58148438 1.95289063 29.28015625 1.97609375 30 2 C29.34 3.32 28.68 4.64 28 6 C23.70845978 6.0867562 19.41714332 6.1403089 15.125 6.1875 C13.29001953 6.22520508 13.29001953 6.22520508 11.41796875 6.26367188 C9.66806641 6.27817383 9.66806641 6.27817383 7.8828125 6.29296875 C6.26463623 6.31653442 6.26463623 6.31653442 4.61376953 6.34057617 C3.75122559 6.22818604 2.88868164 6.1157959 2 6 C0 3 0 3 0 0 Z " fill="#743D8E" transform="translate(116,179)"/>
<path d="M0 0 C5.28 0 10.56 0 16 0 C16 0.99 16 1.98 16 3 C13.69 3 11.38 3 9 3 C9 8.28 9 13.56 9 19 C8.01 19 7.02 19 6 19 C6 13.72 6 8.44 6 3 C4.02 3 2.04 3 0 3 C0 2.01 0 1.02 0 0 Z " fill="#3A3A3A" transform="translate(915,206)"/>
<path d="M0 0 C5.28 0 10.56 0 16 0 C16 0.99 16 1.98 16 3 C14.02 3 12.04 3 10 3 C10 8.28 10 13.56 10 19 C9.01 19 8.02 19 7 19 C7 13.72 7 8.44 7 3 C4.69 3 2.38 3 0 3 C0 2.01 0 1.02 0 0 Z " fill="#3A3A3A" transform="translate(619,206)"/>
<path d="M0 0 C0.99 0 1.98 0 3 0 C3 5.28 3 10.56 3 16 C5.97 16 8.94 16 12 16 C12 16.99 12 17.98 12 19 C8.04 19 4.08 19 0 19 C0 12.73 0 6.46 0 0 Z " fill="#3A3A3A" transform="translate(858,206)"/>
<path d="M0 0 C2.97 0 5.94 0 9 0 C8.67 2.64 8.34 5.28 8 8 C5.36 8 2.72 8 0 8 C-1.08174162 4.63458162 -0.92538169 3.70152678 0 0 Z " fill="#A13D70" transform="translate(116,171)"/>
<path d="M0 0 C0.99 0 1.98 0 3 0 C3 6.27 3 12.54 3 19 C2.01 19 1.02 19 0 19 C0 12.73 0 6.46 0 0 Z " fill="#3A3A3A" transform="translate(945,206)"/>
<path d="M0 0 C2.64 0 5.28 0 8 0 C8.66 1.32 9.32 2.64 10 4 C7.03 4 4.06 4 1 4 C0.67 2.68 0.34 1.36 0 0 Z " fill="#863D83" transform="translate(116,179)"/>
<path d="M0 0 C2.97 0 5.94 0 9 0 C8.34 1.32 7.68 2.64 7 4 C4.69 4 2.38 4 0 4 C0 2.68 0 1.36 0 0 Z " fill="#BD3B5D" transform="translate(116,171)"/>
</svg>
