<svg xmlns="http://www.w3.org/2000/svg" xmlns:xlink="http://www.w3.org/1999/xlink" width="1920" height="572" viewBox="0 0 1920 572">
  <defs>
    <linearGradient id="linear-gradient" x1="0.501" y1="-0.001" x2="0.501" y2="0.999" gradientUnits="objectBoundingBox">
      <stop offset="0.2" stop-color="#df3a42"/>
      <stop offset="0.79" stop-color="#643e98"/>
    </linearGradient>
    <linearGradient id="linear-gradient-2" x1="0.5" y1="0" x2="0.5" y2="1" xlink:href="#linear-gradient"/>
    <linearGradient id="linear-gradient-3" x1="0.5" y1="0" x2="0.5" y2="1" xlink:href="#linear-gradient"/>
    <linearGradient id="linear-gradient-4" x1="0.5" y1="0" x2="0.5" y2="1" xlink:href="#linear-gradient"/>
    <clipPath id="clip-Web_1920_1">
      <rect width="1920" height="572"/>
    </clipPath>
  </defs>
  <g id="Web_1920_1" data-name="Web 1920 – 1" clip-path="url(#clip-Web_1920_1)">
    <rect width="1920" height="572" fill="#fff"/>
    <g id="Group_1" data-name="Group 1" transform="translate(38.017 22.781)">
      <path id="Path_1" data-name="Path 1" d="M262.336,152.186H230.025L130.02,48.3H91.488a29,29,0,1,0,0,12.844h33.119L225.016,165.272h37.32v39.9h12.521v-39.9h11.39V152.186H262.336ZM63.216,70.519A16.156,16.156,0,1,1,79.372,54.363,16.156,16.156,0,0,1,63.216,70.519Z" transform="translate(64.427 132.479)" fill="url(#linear-gradient)"/>
      <path id="Path_2" data-name="Path 2" d="M567.017,241.369,754.828,51.053l.808,147.1-59.776,55.334a29,29,0,1,0,9.128,9.047l63.331-58.888V18.9L557.889,232.321,329.446,6.14V121.089H82.585a29.161,29.161,0,1,0-.646,13.167H329.446V268.268h12.521V134.256h11.39V121.089h-11.39V37.321L816.059,505.839l-147.179.808L540.521,373.685A28.6,28.6,0,0,0,544.8,358.66a28.919,28.919,0,1,0-28.919,28.919,28.192,28.192,0,0,0,15.671-4.685L663.386,519.572H848.209Zm113.575,52.668a16.156,16.156,0,1,1,16.156-16.156A16.156,16.156,0,0,1,680.592,294.036ZM54.151,142.333a16.156,16.156,0,1,1,16.156-16.156A16.156,16.156,0,0,1,54.151,142.333Zm461.733,232.4a16.156,16.156,0,1,1,16.156-16.156A16.156,16.156,0,0,1,515.884,374.735Z" transform="translate(-2.682 -6.14)" fill="url(#linear-gradient-2)"/>
      <path id="Path_3" data-name="Path 3" d="M56.5,38.59A28.919,28.919,0,1,0,84.688,74.214H233.645L221.286,61.37H84.688A29.08,29.08,0,0,0,56.5,38.59Zm0,45.075A16.156,16.156,0,1,1,72.652,67.509,16.156,16.156,0,0,1,56.5,83.665Z" transform="translate(17.913 223.538)" fill="url(#linear-gradient-3)"/>
      <path id="Path_4" data-name="Path 4" d="M455.553,33.351a28.919,28.919,0,0,0-6.543,57.03v224.4H361.284V186.265h11.39V173.422H200.453L110.385,274.88H79.123a28.919,28.919,0,1,0,0,12.763H116.2l89.988-101.378H348.764V327.629H461.854V90.542a28.919,28.919,0,0,0-6.3-57.192ZM50.931,297.094a16.156,16.156,0,1,1,16.156-16.156A16.156,16.156,0,0,1,50.931,297.094ZM455.553,78.183a6.714,6.714,0,1,1,0,.242Z" transform="translate(-22 186.449)" fill="url(#linear-gradient-4)"/>
      <path id="Path_5" data-name="Path 5" d="M231.065,26.5l68.9,161.558h-37.8L247.3,149.607H177.024l-14.379,38.451H126.86L195.037,26.5ZM188.09,120.85h48.467L212.324,58.731Z" transform="translate(720.202 137.966)" fill="#3a3a3a"/>
      <path id="Path_6" data-name="Path 6" d="M184.289,26.5v77.709L248.023,26.5h40.39l-64.623,79L289.3,188.139H245.923l-61.715-80.375v80.375H150.2V26.581Z" transform="translate(885.4 137.966)" fill="#3a3a3a"/>
      <path id="Path_7" data-name="Path 7" d="M172.9,74.656a70.276,70.276,0,0,1,17.206-29A64.058,64.058,0,0,1,219.909,29.5c4.524-1.05,9.128-1.858,13.975-2.5a122.713,122.713,0,0,1,14.379-.889,111.718,111.718,0,0,1,15.51.646,98.068,98.068,0,0,1,15.106,2.989A62.684,62.684,0,0,1,308.362,45.9a66.642,66.642,0,0,1,16.883,29,138.38,138.38,0,0,1,4.766,35.139,160.607,160.607,0,0,1-1.131,18.9,109.633,109.633,0,0,1-3.635,17.61,64.625,64.625,0,0,1-17.125,29.323A63.089,63.089,0,0,1,277.989,191.3a98.479,98.479,0,0,1-14.863,2.585,140.4,140.4,0,0,1-15.509.808,114.876,114.876,0,0,1-13.975-.889c-4.685-.646-9.209-1.454-13.732-2.5a63.249,63.249,0,0,1-29.969-15.429A65.027,65.027,0,0,1,172.9,146.711a128.006,128.006,0,0,1-3.554-17.125,144.088,144.088,0,0,1-1.212-18.741A161.021,161.021,0,0,1,169.261,92.1,85.613,85.613,0,0,1,172.9,75.06Zm35.058,11.471a90.03,90.03,0,0,0-2.262,12.2c-.4,4.2-.646,8.078-.646,12.278a92.261,92.261,0,0,0,.808,12.521,113.071,113.071,0,0,0,2.1,12.036,49.2,49.2,0,0,0,8.078,18.014A32.311,32.311,0,0,0,232.188,164.4a43.13,43.13,0,0,0,8.078,2.1,56.546,56.546,0,0,0,17.044,0,43.137,43.137,0,0,0,8.078-2.1,33.28,33.28,0,0,0,16.156-11.228,44.351,44.351,0,0,0,8.078-18.014,113.04,113.04,0,0,0,2.1-12.036,92.241,92.241,0,0,0,.808-12.521,91.258,91.258,0,0,0-.808-12.278,116.982,116.982,0,0,0-2.1-12.036,45.718,45.718,0,0,0-8.078-18.094,32.312,32.312,0,0,0-16.156-11.148,52.587,52.587,0,0,0-33.362,0A32.311,32.311,0,0,0,215.87,68.355a53.957,53.957,0,0,0-8.078,17.933Z" transform="translate(1012.307 134.885)" fill="#3a3a3a"/>
      <path id="Path_8" data-name="Path 8" d="M265.8,26.5c24.234,0,42.974,6.22,55.172,18.256s19.064,30.777,20.679,56.545v6.7a68.575,68.575,0,0,1,0,7.028,111.724,111.724,0,0,1-5.816,32.312,58.645,58.645,0,0,1-18.983,26.819A52.426,52.426,0,0,1,293.1,185.635a135.708,135.708,0,0,1-26.657,2.5H191.48V26.581Zm-.646,28.273H225.73V159.785h39.42a1.858,1.858,0,0,0,.969,0h1.05a66.076,66.076,0,0,0,14.459-1.454,22.456,22.456,0,0,0,12.521-7.513,35.7,35.7,0,0,0,7.593-14.217,88.841,88.841,0,0,0,2.747-16.156q0-3.393,0-6.785V100.494a73.384,73.384,0,0,0-.4-7.351,77.784,77.784,0,0,0-2.585-15.51,32.312,32.312,0,0,0-7.593-13.49,22.7,22.7,0,0,0-12.521-7.674,66.077,66.077,0,0,0-14.459-1.616h-2.019Z" transform="translate(1177.576 137.966)" fill="#3a3a3a"/>
      <path id="Path_9" data-name="Path 9" d="M315.389,26.5l68.9,161.558H346.408l-14.863-38.451h-70.52l-14.379,38.451H210.78L279.038,26.5Zm-43.055,94.35H320.8L296.567,58.731Z" transform="translate(1314.179 137.966)" fill="#3a3a3a"/>
      <path id="Path_10" data-name="Path 10" d="M268.188,92.012h62.361V26.5h33.927V188.058H330.549v-67.45H268.188v67.531H234.18V26.581h34.008Z" transform="translate(1479.802 137.966)" fill="#3a3a3a"/>
      <path id="Path_11" data-name="Path 11" d="M127.777,59.3a8.724,8.724,0,0,1,3.312-7.27,14.136,14.136,0,0,1,9.128-2.666,13.975,13.975,0,0,1,9.128,2.747,9.693,9.693,0,0,1,3.635,7.512h-4.766a5.978,5.978,0,0,0-2.423-4.443,10.9,10.9,0,0,0-2.585-1.212,10.342,10.342,0,0,0-3.312,0,8.644,8.644,0,0,0-5.412,1.535,5.089,5.089,0,0,0-2.019,4.2,4.363,4.363,0,0,0,.727,2.666,4.846,4.846,0,0,0,2.019,1.777,9.857,9.857,0,0,0,2.827,1.131l3.393.808,4.362,1.05a15.51,15.51,0,0,1,3.958,1.535,9.21,9.21,0,0,1,2.827,2.746,8.077,8.077,0,0,1,1.131,4.362,8.805,8.805,0,0,1-3.231,7.189,14.621,14.621,0,0,1-9.289,2.585,21.245,21.245,0,0,1-5.816-.727,12.6,12.6,0,0,1-4.443-2.1,9.047,9.047,0,0,1-2.827-3.231,9.613,9.613,0,0,1-1.05-4.281h4.685a6.3,6.3,0,0,0,2.989,4.524,10.986,10.986,0,0,0,6.381,1.7,10.179,10.179,0,0,0,5.816-1.454,4.766,4.766,0,0,0,2.1-4.039,3.958,3.958,0,0,0-.727-2.423,4.362,4.362,0,0,0-2.019-1.535,18.906,18.906,0,0,0-2.827-1.05l-3.393-.727-4.362-1.05a11.55,11.55,0,0,1-3.958-1.7,8.885,8.885,0,0,1-2.827-2.908,9.369,9.369,0,0,1-1.131-5.251Z" transform="translate(721.547 299.604)" fill="#3a3a3a"/>
      <path id="Path_12" data-name="Path 12" d="M134,67.274a17.207,17.207,0,0,1,1.373-7.109,18.092,18.092,0,0,1,3.716-5.655,18.254,18.254,0,0,1,25.526,0,18.1,18.1,0,0,1,3.716,5.655,18.9,18.9,0,0,1,0,14.136,18.1,18.1,0,0,1-3.716,5.655,17.368,17.368,0,0,1-5.735,3.8,18.66,18.66,0,0,1-14.056,0,17.368,17.368,0,0,1-5.735-3.8,18.094,18.094,0,0,1-3.716-5.655A17.045,17.045,0,0,1,134,67.274Zm4.6,0a14.215,14.215,0,0,0,.969,5.331,15.587,15.587,0,0,0,2.746,4.281,12.035,12.035,0,0,0,4.281,2.827,13.814,13.814,0,0,0,5.251.969,14.136,14.136,0,0,0,5.251-.969,11.068,11.068,0,0,0,4.2-2.827,12.521,12.521,0,0,0,2.746-4.281,12.843,12.843,0,0,0,1.05-5.331,13.166,13.166,0,0,0-1.05-5.412,12.518,12.518,0,0,0-2.746-4.281,12.035,12.035,0,0,0-4.2-2.827,14.136,14.136,0,0,0-5.25-.969,13.814,13.814,0,0,0-5.251.969,13.167,13.167,0,0,0-4.281,2.827,15.587,15.587,0,0,0-2.747,4.281,14.621,14.621,0,0,0-1.05,5.412Z" transform="translate(770.734 299.625)" fill="#3a3a3a"/>
      <path id="Path_13" data-name="Path 13" d="M142.31,49.41h23.83v4.12H146.834V64.92h16.156V68.8H146.834V84.145H142.31Z" transform="translate(829.555 300.121)" fill="#3a3a3a"/>
      <path id="Path_14" data-name="Path 14" d="M160.96,53.53H148.52V49.41h29.323v4.12H165.4V84.145H160.96Z" transform="translate(873.509 300.121)" fill="#3a3a3a"/>
      <path id="Path_15" data-name="Path 15" d="M159.884,49.622l9.29,29L177.9,49.38h4.6l8.886,29.242,9.29-29.242h4.6L194.054,84.115H188.8l-8.562-28.192-8.562,28.192h-5.17L155.28,49.38Z" transform="translate(921.356 299.909)" fill="#3a3a3a"/>
      <path id="Path_16" data-name="Path 16" d="M177.609,49.41h5.654l13.409,34.735h-4.685l-2.908-7.593H171.873l-2.908,7.593H164.28Zm9.855,23.022-6.947-18.256-7.028,18.5Z" transform="translate(985.057 300.121)" fill="#3a3a3a"/>
      <path id="Path_17" data-name="Path 17" d="M185.652,49.412a17.528,17.528,0,0,1,5.251.727,10.663,10.663,0,0,1,4.039,2.1,9.208,9.208,0,0,1,2.5,3.312,10.741,10.741,0,0,1,.888,4.362,9.29,9.29,0,0,1-2.1,6.3,10.825,10.825,0,0,1-5.9,3.716l8.078,14.217h-5.331l-8.078-13.652h-9.128V84.146H172V49.411Zm-.485,17.206a10.42,10.42,0,0,0,6.3-1.7,5.977,5.977,0,0,0,2.181-4.847,5.816,5.816,0,0,0-2.181-4.847,10.421,10.421,0,0,0-6.3-1.7h-8.724V66.617Z" transform="translate(1039.698 300.119)" fill="#3a3a3a"/>
      <path id="Path_18" data-name="Path 18" d="M179.28,49.41h24.234v4.12H184.127V64.92h16.156V68.8H184.127V79.944h19.387v4.2H179.28Z" transform="translate(1091.225 300.121)" fill="#3a3a3a"/>
      <path id="Path_19" data-name="Path 19" d="M191.208,59.3a8.481,8.481,0,0,1,3.312-7.27,14.136,14.136,0,0,1,9.128-2.666,13.733,13.733,0,0,1,9.047,2.746,9.451,9.451,0,0,1,3.635,7.512h-4.766a5.252,5.252,0,0,0-.646-2.5,6.38,6.38,0,0,0-1.7-1.939,10.907,10.907,0,0,0-2.585-1.212,10.664,10.664,0,0,0-3.312,0,8.078,8.078,0,0,0-5.412,1.535,5.089,5.089,0,0,0-2.02,4.2,4.363,4.363,0,0,0,.727,2.666,5.17,5.17,0,0,0,1.939,1.777,9.531,9.531,0,0,0,2.908,1.131l3.393.808,4.362,1.05a13.891,13.891,0,0,1,3.877,1.535,8.641,8.641,0,0,1,2.908,2.746,8.077,8.077,0,0,1,1.05,4.362,8.724,8.724,0,0,1-3.15,7.189,14.864,14.864,0,0,1-9.37,2.585,21,21,0,0,1-5.735-.727,11.955,11.955,0,0,1-4.443-2.1,9.288,9.288,0,0,1-2.908-3.231,9.532,9.532,0,0,1-.969-4.281h4.685a6.22,6.22,0,0,0,2.908,4.524,11.229,11.229,0,0,0,6.382,1.7,10.016,10.016,0,0,0,5.816-1.454,4.524,4.524,0,0,0,2.1-4.039,3.957,3.957,0,0,0-.727-2.423,4.605,4.605,0,0,0-1.939-1.535,17.13,17.13,0,0,0-2.908-1.05l-3.393-.727-4.362-1.05a10.5,10.5,0,0,1-3.877-1.7,8.077,8.077,0,0,1-2.908-2.908A9.369,9.369,0,0,1,191.208,59.3Z" transform="translate(1170.497 299.604)" fill="#3a3a3a"/>
      <path id="Path_20" data-name="Path 20" d="M197.41,67.274a18.575,18.575,0,0,1,1.373-7.109,16.963,16.963,0,0,1,3.8-5.655,17.69,17.69,0,0,1,12.682-5.17,18.581,18.581,0,0,1,7.109,1.373,17.691,17.691,0,0,1,9.451,9.451,18.9,18.9,0,0,1,0,14.136,18.335,18.335,0,0,1-3.8,5.655,16.963,16.963,0,0,1-5.655,3.8,18.9,18.9,0,0,1-14.136,0,17.69,17.69,0,0,1-9.451-9.451,18.5,18.5,0,0,1-1.373-7.028Zm4.685,0a14.222,14.222,0,0,0,.969,5.331,12.52,12.52,0,0,0,2.746,4.281,11.714,11.714,0,0,0,4.2,2.827,14.944,14.944,0,0,0,10.582,0,12.44,12.44,0,0,0,4.2-2.827,13.9,13.9,0,0,0,2.746-4.281,14.218,14.218,0,0,0,.969-5.331,14.62,14.62,0,0,0-.969-5.412,13.894,13.894,0,0,0-2.746-4.281,13.73,13.73,0,0,0-4.2-2.827,14.944,14.944,0,0,0-10.34-.081,12.845,12.845,0,0,0-4.2,2.827,12.517,12.517,0,0,0-2.746,4.281,14.615,14.615,0,0,0-1.131,5.493Z" transform="translate(1219.547 299.625)" fill="#3a3a3a"/>
      <path id="Path_21" data-name="Path 21" d="M205.73,49.41h4.524V79.944h17.771v4.2H205.73Z" transform="translate(1278.436 300.121)" fill="#3a3a3a"/>
      <path id="Path_22" data-name="Path 22" d="M226.671,84.7a17.691,17.691,0,0,1-6.058-.969,12.279,12.279,0,0,1-4.524-2.827,12.117,12.117,0,0,1-2.908-4.443,17.529,17.529,0,0,1-.969-5.978v-21h4.524V70.4a10.1,10.1,0,0,0,2.585,7.432,9.855,9.855,0,0,0,7.351,2.666,9.613,9.613,0,0,0,7.27-2.666,10.1,10.1,0,0,0,2.585-7.432v-21h4.443v21A17.532,17.532,0,0,1,240,76.38a11.953,11.953,0,0,1-2.827,4.443,12.278,12.278,0,0,1-4.524,2.827,17.53,17.53,0,0,1-5.978,1.05Z" transform="translate(1324.3 300.05)" fill="#3a3a3a"/>
      <path id="Path_23" data-name="Path 23" d="M231.9,53.53H219.46V49.41h29.4v4.12h-12.44V84.145H231.9Z" transform="translate(1375.616 300.121)" fill="#3a3a3a"/>
      <path id="Path_24" data-name="Path 24" d="M226.7,49.41h4.524V84.145H226.7Z" transform="translate(1426.859 300.121)" fill="#3a3a3a"/>
      <path id="Path_25" data-name="Path 25" d="M231.163,67.274a17.2,17.2,0,0,1,1.373-7.109,16.964,16.964,0,0,1,3.8-5.654,17.366,17.366,0,0,1,5.654-3.8,18.988,18.988,0,0,1,20.195,3.958,18.094,18.094,0,0,1,3.716,5.655,18.9,18.9,0,0,1,0,14.136,18.094,18.094,0,0,1-3.716,5.655,17.369,17.369,0,0,1-5.735,3.8,18.66,18.66,0,0,1-14.056,0,16.155,16.155,0,0,1-5.654-3.8,17.69,17.69,0,0,1-5.17-12.682Zm4.6,0a12.841,12.841,0,0,0,1.05,5.331,12.523,12.523,0,0,0,2.747,4.281,11.712,11.712,0,0,0,4.2,2.827,14.137,14.137,0,0,0,5.251.969,13.812,13.812,0,0,0,5.25-.969,12.036,12.036,0,0,0,4.281-2.827,15.6,15.6,0,0,0,2.746-4.281,14.217,14.217,0,0,0,.969-5.331,14.62,14.62,0,0,0-.969-5.412,15.594,15.594,0,0,0-2.747-4.281,13.167,13.167,0,0,0-4.443-2.908,13.813,13.813,0,0,0-5.25-.969,14.137,14.137,0,0,0-5.251.969,12.845,12.845,0,0,0-4.2,2.827,12.523,12.523,0,0,0-2.746,4.281,13.171,13.171,0,0,0-.889,5.493Z" transform="translate(1458.424 299.625)" fill="#3a3a3a"/>
      <path id="Path_26" data-name="Path 26" d="M239.763,49.41h5.816L264,78.41v-29h4.2V84.145h-5.816L243.964,55.468V84.145H239.44Z" transform="translate(1517.032 300.121)" fill="#3a3a3a"/>
      <path id="Path_27" data-name="Path 27" d="M247.728,59.3a8.724,8.724,0,0,1,3.312-7.27,14.137,14.137,0,0,1,9.128-2.666,13.975,13.975,0,0,1,9.128,2.746,9.694,9.694,0,0,1,3.635,7.512h-4.847a5.25,5.25,0,0,0-.646-2.5,6.381,6.381,0,0,0-1.7-1.939,10.907,10.907,0,0,0-2.585-1.212,10.664,10.664,0,0,0-3.312,0,8.644,8.644,0,0,0-5.412,1.535,5.089,5.089,0,0,0-2.019,4.2,4.363,4.363,0,0,0,.727,2.666,5.17,5.17,0,0,0,1.939,1.777,11.473,11.473,0,0,0,2.908,1.131l3.393.808,4.362,1.05a15.509,15.509,0,0,1,3.958,1.535,9.21,9.21,0,0,1,2.827,2.746,8.076,8.076,0,0,1,1.131,4.362,8.805,8.805,0,0,1-3.231,7.189,14.621,14.621,0,0,1-9.29,2.585,21.244,21.244,0,0,1-5.816-.727,12.6,12.6,0,0,1-4.443-2.1,9.047,9.047,0,0,1-2.827-3.231A8.644,8.644,0,0,1,247,75.211h4.685a6.3,6.3,0,0,0,2.989,4.524,10.824,10.824,0,0,0,6.381,1.7,10.339,10.339,0,0,0,5.816-1.454,4.766,4.766,0,0,0,2.1-4.039,3.959,3.959,0,0,0-.727-2.423,4.363,4.363,0,0,0-2.02-1.535,18.9,18.9,0,0,0-3.069-1.131l-3.393-.727-4.362-1.05a11.553,11.553,0,0,1-3.958-1.7,8.078,8.078,0,0,1-2.827-2.908,9.369,9.369,0,0,1-.889-5.17Z" transform="translate(1570.54 299.604)" fill="#3a3a3a"/>
    </g>
  </g>
</svg>
