<svg id="Layer_1" data-name="Layer 1" xmlns="http://www.w3.org/2000/svg" xmlns:xlink="http://www.w3.org/1999/xlink" viewBox="0 0 391.39 281.87"><defs><style>.cls-1{fill:url(#linear-gradient);}.cls-2{fill:url(#linear-gradient-2);}.cls-3{fill:url(#linear-gradient-3);}.cls-4{fill:url(#linear-gradient-4);}.cls-5{fill:#3a3a3a;}</style><linearGradient id="linear-gradient" x1="113.33" y1="128.67" x2="113.33" y2="150.88" gradientUnits="userSpaceOnUse"><stop offset="0.2" stop-color="#df3a42"/><stop offset="0.79" stop-color="#643e98"/></linearGradient><linearGradient id="linear-gradient-2" x1="139.22" y1="109.11" x2="139.22" y2="172.71" xlink:href="#linear-gradient"/><linearGradient id="linear-gradient-3" x1="103.88" y1="141.57" x2="103.88" y2="148.73" xlink:href="#linear-gradient"/><linearGradient id="linear-gradient-4" x1="114.12" y1="136.33" x2="114.12" y2="172.76" xlink:href="#linear-gradient"/></defs><path class="cls-1" d="M125.94,144.35H122l-12.44-12.87h-4.77a3.59,3.59,0,1,0,0,1.59h4.12l12.43,12.86h4.62v4.94h1.59v-4.94H129v-1.58h-3Zm-24.65-10.1a2,2,0,1,1,2-2A2,2,0,0,1,101.29,134.25Z"/><path class="cls-2" d="M155.35,138.24l23.25-23.57.11,18.22-7.41,6.85a3.48,3.48,0,0,0-1.88-.55,3.61,3.61,0,1,0,3,1.66l7.85-7.28,0-22.88-26.09,26.43-28.28-28v14.24H95.38a3.6,3.6,0,1,0-.08,1.59h30.64v16.63h1.59V124.94H129v-1.59h-1.42V112.92L186.18,171l-18.22.1-15.89-16.49a3.57,3.57,0,1,0-3,1.72,3.56,3.56,0,0,0,1.93-.58l16.33,16.92,22.87,0Zm14.07,6.52a2,2,0,1,1,2-2A2,2,0,0,1,169.42,144.76ZM91.86,126a2,2,0,1,1,2-2A2,2,0,0,1,91.86,126ZM149,154.75a2,2,0,1,1,2-2A2,2,0,0,1,149,154.75Z"/><path class="cls-3" d="M94.71,141.57a3.58,3.58,0,1,0,3.48,4.37h18.44l-1.53-1.58H98.19A3.57,3.57,0,0,0,94.71,141.57Zm0,5.57a2,2,0,1,1,2-2A2,2,0,0,1,94.71,147.14Z"/><path class="cls-4" d="M139.17,136.33a3.58,3.58,0,0,0-.82,7.06v27.78H127.53V155.26H129v-1.59H107.58L96.44,166.22H92.56a3.59,3.59,0,1,0,0,1.59h4.59l11.15-12.55h17.64v17.5h14V143.4a3.58,3.58,0,0,0-.77-7.07ZM89.08,169a2,2,0,1,1,2-2A2,2,0,0,1,89.08,169Zm50.09-27.11a2,2,0,1,1,2-2A2,2,0,0,1,139.17,141.9Z"/><path class="cls-5" d="M203.25,129.48l8.53,20H207.1l-1.84-4.77h-8.7l-1.78,4.77h-4.43l8.44-20Zm-5.32,11.67h6l-3-7.69Z"/><path class="cls-5" d="M217.91,129.48v9.61l7.89-9.61h5l-8,9.78,8.11,10.23h-5.38l-7.64-10v10H213.7v-20Z"/><path class="cls-5" d="M232.21,135.05a8.66,8.66,0,0,1,2.13-3.58,8,8,0,0,1,3.69-2,16,16,0,0,1,1.73-.3,13.29,13.29,0,0,1,1.78-.11,14,14,0,0,1,1.93.08,12,12,0,0,1,1.86.36,7.71,7.71,0,0,1,3.65,1.95,8.34,8.34,0,0,1,2.1,3.6,18.46,18.46,0,0,1,.43,2.12,16.6,16.6,0,0,1,.15,2.23,20.14,20.14,0,0,1-.14,2.34,13.45,13.45,0,0,1-.44,2.17,8.14,8.14,0,0,1-2.12,3.64,7.93,7.93,0,0,1-3.74,1.91,15.35,15.35,0,0,1-1.84.32q-.94.09-1.92.09a12.56,12.56,0,0,1-1.73-.11,16.34,16.34,0,0,1-1.7-.3,7.88,7.88,0,0,1-3.7-1.91,8,8,0,0,1-2.12-3.64,14.18,14.18,0,0,1-.43-2.12,16.1,16.1,0,0,1-.16-2.31,20.1,20.1,0,0,1,.14-2.33,10.49,10.49,0,0,1,.45-2.1Zm4.35,1.42a8.83,8.83,0,0,0-.28,1.52,13,13,0,0,0-.09,1.52,13.44,13.44,0,0,0,.1,1.55,14.5,14.5,0,0,0,.27,1.49,6,6,0,0,0,1,2.23,4.14,4.14,0,0,0,2,1.39,5,5,0,0,0,1,.25,6.23,6.23,0,0,0,1.06.08,6.39,6.39,0,0,0,1.06-.08,5.42,5.42,0,0,0,1-.25,4.27,4.27,0,0,0,2-1.39,5.68,5.68,0,0,0,1-2.23,14.48,14.48,0,0,0,.26-1.49,11.53,11.53,0,0,0,.1-1.55A11.19,11.19,0,0,0,247,138a14,14,0,0,0-.26-1.49,5.79,5.79,0,0,0-1-2.24,4,4,0,0,0-2-1.38,5.42,5.42,0,0,0-1-.25,6.41,6.41,0,0,0-1.06-.09,6.23,6.23,0,0,0-1.06.09,5,5,0,0,0-1,.25,3.93,3.93,0,0,0-2,1.39,6.36,6.36,0,0,0-1,2.23Z"/><path class="cls-5" d="M264.17,129.48c3.05,0,5.33.77,6.83,2.25s2.36,3.81,2.57,7c0,.28,0,.56,0,.84a8.36,8.36,0,0,1,0,.86,13.51,13.51,0,0,1-.72,4,7.31,7.31,0,0,1-2.34,3.33,6.59,6.59,0,0,1-2.94,1.42,17.6,17.6,0,0,1-3.3.31H255v-20Zm-.08,3.48h-4.88v13h4.88a.27.27,0,0,0,.12,0h.13a9,9,0,0,0,1.8-.18,2.78,2.78,0,0,0,1.54-.93,4.49,4.49,0,0,0,.94-1.76,11.1,11.1,0,0,0,.35-2c0-.28,0-.56,0-.83v-1.72a6.7,6.7,0,0,0-.05-.9,9,9,0,0,0-.32-1.93,4,4,0,0,0-.94-1.67,2.88,2.88,0,0,0-1.54-.95,8.34,8.34,0,0,0-1.8-.19h-.25Z"/><path class="cls-5" d="M287.22,129.48l8.53,20h-4.68l-1.84-4.77h-8.7l-1.78,4.77h-4.43l8.44-20Zm-5.32,11.67h6l-3-7.69Z"/><path class="cls-5" d="M301.88,137.59h7.72v-8.11h4.21v20H309.6v-8.36h-7.72v8.36h-4.21v-20h4.21Z"/><path class="cls-5" d="M190.64,153.55a1.1,1.1,0,0,1,.4-.91,1.84,1.84,0,0,1,1.14-.32,1.76,1.76,0,0,1,1.12.33,1.23,1.23,0,0,1,.45.93h-.59a.74.74,0,0,0-.08-.3.84.84,0,0,0-.22-.24.81.81,0,0,0-.31-.15,1.35,1.35,0,0,0-.41-.06,1.1,1.1,0,0,0-.68.2.64.64,0,0,0-.25.52.58.58,0,0,0,.09.33.67.67,0,0,0,.25.22,1.6,1.6,0,0,0,.35.14l.42.1.54.12a1.8,1.8,0,0,1,.49.2,1,1,0,0,1,.35.33,1,1,0,0,1,.14.55,1.06,1.06,0,0,1-.4.89,1.79,1.79,0,0,1-1.15.32,2.73,2.73,0,0,1-.72-.09,1.86,1.86,0,0,1-.55-.26,1.25,1.25,0,0,1-.35-.41,1.12,1.12,0,0,1-.12-.53h.57a.78.78,0,0,0,.37.57,1.47,1.47,0,0,0,.79.2,1.24,1.24,0,0,0,.72-.18.57.57,0,0,0,.26-.49.5.5,0,0,0-.09-.31.65.65,0,0,0-.24-.19,1.69,1.69,0,0,0-.36-.12l-.42-.09-.54-.13a2,2,0,0,1-.49-.21,1.13,1.13,0,0,1-.35-.37A1.15,1.15,0,0,1,190.64,153.55Z"/><path class="cls-5" d="M197.48,154.53a2.29,2.29,0,0,1,.17-.87,2.19,2.19,0,0,1,2-1.34,2.13,2.13,0,0,1,.88.17,2.1,2.1,0,0,1,.7.47,2.27,2.27,0,0,1,.47,2.44,2.31,2.31,0,0,1-.47.71,2.27,2.27,0,0,1-.7.47,2.34,2.34,0,0,1-1.75,0,2.27,2.27,0,0,1-.7-.47,2.15,2.15,0,0,1-.47-.71A2.29,2.29,0,0,1,197.48,154.53Zm.58,0a1.85,1.85,0,0,0,.12.67,1.55,1.55,0,0,0,.34.53,1.75,1.75,0,0,0,1.83.35,1.9,1.9,0,0,0,.52-.35,1.72,1.72,0,0,0,.34-.53,1.85,1.85,0,0,0,.12-.67,1.76,1.76,0,0,0-.12-.66,1.61,1.61,0,0,0-.34-.53,1.54,1.54,0,0,0-.52-.35,1.72,1.72,0,0,0-1.31,0,1.45,1.45,0,0,0-.52.35,1.46,1.46,0,0,0-.34.53A1.76,1.76,0,0,0,198.06,154.53Z"/><path class="cls-5" d="M205.8,152.38h2.95v.51h-2.39v1.41h2v.48h-2v1.9h-.56Z"/><path class="cls-5" d="M213.55,152.89H212v-.51h3.64v.51h-1.54v3.79h-.56Z"/><path class="cls-5" d="M219.34,152.38,220.5,156l1.08-3.62h.58l1.08,3.62,1.16-3.62H225l-1.4,4.3h-.64l-1.06-3.48-1.06,3.48h-.65l-1.39-4.3Z"/><path class="cls-5" d="M229.43,152.38h.7l1.65,4.3h-.58l-.36-.94h-2.12l-.36.94h-.59Zm1.22,2.85-.87-2.28-.87,2.28Z"/><path class="cls-5" d="M237.18,152.38a2.29,2.29,0,0,1,.66.09,1.53,1.53,0,0,1,.49.26,1,1,0,0,1,.31.41,1.19,1.19,0,0,1,.11.54,1.24,1.24,0,0,1-.25.79,1.42,1.42,0,0,1-.74.45l1,1.76h-.66l-1-1.69h-1.12v1.69h-.56v-4.3Zm-.06,2.13a1.25,1.25,0,0,0,.78-.21.77.77,0,0,0,0-1.19,1.25,1.25,0,0,0-.78-.22h-1.07v1.62Z"/><path class="cls-5" d="M242.78,152.38h2.95v.51h-2.39v1.41h2v.48h-2v1.39h2.39v.51h-2.95Z"/><path class="cls-5" d="M254.06,153.55a1.11,1.11,0,0,1,.41-.91,1.81,1.81,0,0,1,1.13-.32,1.79,1.79,0,0,1,1.13.33,1.19,1.19,0,0,1,.44.93h-.59a.61.61,0,0,0-.08-.3.69.69,0,0,0-.21-.24.86.86,0,0,0-.32-.15,1.31,1.31,0,0,0-.41-.06,1.07,1.07,0,0,0-.67.2.61.61,0,0,0-.25.52.58.58,0,0,0,.09.33.73.73,0,0,0,.24.22,1.69,1.69,0,0,0,.36.14l.42.1.54.12a1.94,1.94,0,0,1,.49.2,1.1,1.1,0,0,1,.35.33,1,1,0,0,1,.13.55,1.08,1.08,0,0,1-.39.89,1.81,1.81,0,0,1-1.15.32,2.63,2.63,0,0,1-.72-.09,1.65,1.65,0,0,1-.55-.26,1.15,1.15,0,0,1-.35-.41,1,1,0,0,1-.13-.53h.58a.8.8,0,0,0,.36.57,1.47,1.47,0,0,0,.79.2,1.29,1.29,0,0,0,.73-.18.57.57,0,0,0,.26-.49.5.5,0,0,0-.09-.31.62.62,0,0,0-.25-.19,1.6,1.6,0,0,0-.35-.12l-.42-.09-.54-.13a1.81,1.81,0,0,1-.49-.21,1,1,0,0,1-.35-.37A1.14,1.14,0,0,1,254.06,153.55Z"/><path class="cls-5" d="M260.9,154.53a2.19,2.19,0,0,1,.64-1.57,2.1,2.1,0,0,1,.7-.47,2.34,2.34,0,0,1,1.75,0,2.19,2.19,0,0,1,1.17,1.17,2.31,2.31,0,0,1,0,1.74,2.15,2.15,0,0,1-.47.71,2.19,2.19,0,0,1-1.57.64,2.3,2.3,0,0,1-.88-.17,2.27,2.27,0,0,1-.7-.47,2.31,2.31,0,0,1-.47-.71A2.29,2.29,0,0,1,260.9,154.53Zm.58,0a1.85,1.85,0,0,0,.12.67,1.72,1.72,0,0,0,.34.53,1.9,1.9,0,0,0,.52.35,1.67,1.67,0,0,0,1.83-.35,1.55,1.55,0,0,0,.34-.53,1.85,1.85,0,0,0,.12-.67,1.76,1.76,0,0,0-.12-.66,1.46,1.46,0,0,0-.34-.53,1.45,1.45,0,0,0-.52-.35,1.72,1.72,0,0,0-1.31,0,1.54,1.54,0,0,0-.52.35,1.61,1.61,0,0,0-.34.53A1.76,1.76,0,0,0,261.48,154.53Z"/><path class="cls-5" d="M269.23,152.38h.56v3.79H272v.51h-2.76Z"/><path class="cls-5" d="M277.52,156.75a2.18,2.18,0,0,1-.75-.13,1.5,1.5,0,0,1-.56-.34,1.52,1.52,0,0,1-.35-.56,2.17,2.17,0,0,1-.12-.74v-2.6h.55V155a1.3,1.3,0,0,0,.32.93,1.26,1.26,0,0,0,.91.32,1.22,1.22,0,0,0,.9-.32,1.3,1.3,0,0,0,.32-.93v-2.6h.56V155a2,2,0,0,1-.13.74,1.5,1.5,0,0,1-.34.56,1.59,1.59,0,0,1-.56.34A2.18,2.18,0,0,1,277.52,156.75Z"/><path class="cls-5" d="M284.46,152.89h-1.54v-.51h3.64v.51H285v3.79h-.56Z"/><path class="cls-5" d="M290.19,152.38h.56v4.3h-.56Z"/><path class="cls-5" d="M294.65,154.53a2.29,2.29,0,0,1,.17-.87,2.19,2.19,0,0,1,2-1.34,2.13,2.13,0,0,1,.88.17,2.1,2.1,0,0,1,.7.47,2.27,2.27,0,0,1,.47,2.44,2.31,2.31,0,0,1-.47.71,2.27,2.27,0,0,1-.7.47,2.34,2.34,0,0,1-1.75,0,2.27,2.27,0,0,1-.7-.47,2.15,2.15,0,0,1-.47-.71A2.29,2.29,0,0,1,294.65,154.53Zm.58,0a1.85,1.85,0,0,0,.12.67,1.55,1.55,0,0,0,.34.53,1.75,1.75,0,0,0,1.83.35,1.9,1.9,0,0,0,.52-.35,1.72,1.72,0,0,0,.34-.53,1.85,1.85,0,0,0,.12-.67,1.76,1.76,0,0,0-.12-.66,1.61,1.61,0,0,0-.34-.53,1.54,1.54,0,0,0-.52-.35,1.72,1.72,0,0,0-1.31,0,1.45,1.45,0,0,0-.52.35,1.46,1.46,0,0,0-.34.53A1.76,1.76,0,0,0,295.23,154.53Z"/><path class="cls-5" d="M303,152.38h.72l2.29,3.55v-3.55h.56v4.3h-.72l-2.29-3.55v3.55H303Z"/><path class="cls-5" d="M310.59,153.55a1.1,1.1,0,0,1,.4-.91,1.82,1.82,0,0,1,1.14-.32,1.76,1.76,0,0,1,1.12.33,1.23,1.23,0,0,1,.45.93h-.59a.62.62,0,0,0-.09-.3.69.69,0,0,0-.21-.24.81.81,0,0,0-.31-.15,1.35,1.35,0,0,0-.41-.06,1.08,1.08,0,0,0-.68.2.64.64,0,0,0-.25.52.58.58,0,0,0,.09.33.67.67,0,0,0,.25.22,1.6,1.6,0,0,0,.35.14l.42.1.54.12a1.94,1.94,0,0,1,.49.2,1,1,0,0,1,.35.33,1,1,0,0,1,.14.55,1.06,1.06,0,0,1-.4.89,1.79,1.79,0,0,1-1.15.32,2.73,2.73,0,0,1-.72-.09,1.86,1.86,0,0,1-.55-.26,1.15,1.15,0,0,1-.35-.41,1.12,1.12,0,0,1-.12-.53h.57a.78.78,0,0,0,.37.57,1.44,1.44,0,0,0,.79.2,1.24,1.24,0,0,0,.72-.18.57.57,0,0,0,.26-.49.5.5,0,0,0-.09-.31.65.65,0,0,0-.24-.19,1.69,1.69,0,0,0-.36-.12l-.42-.09-.54-.13a2,2,0,0,1-.49-.21,1.13,1.13,0,0,1-.35-.37A1.15,1.15,0,0,1,310.59,153.55Z"/></svg>