<svg width="542" height="397" viewBox="0 0 542 397" fill="none" xmlns="http://www.w3.org/2000/svg">
<g filter="url(#filter0_d_4_469)">
<path d="M84.5293 300.196V52.5283H356.233C364.652 52.5283 373.064 53.3765 381.237 55.0488C389.201 56.6782 397.035 59.1099 404.52 62.2764C411.871 65.3853 418.96 69.2334 425.592 73.7139C432.162 78.1519 438.339 83.249 443.954 88.8638C449.568 94.478 454.665 100.656 459.104 107.225C463.584 113.857 467.432 120.947 470.541 128.297C473.707 135.783 476.139 143.616 477.768 151.58C479.441 159.753 480.289 168.166 480.289 176.584V272.165H113.139H112.091L111.357 272.912L84.5293 300.196Z" fill="white"/>
<path d="M87.0293 55.0283V294.087L111.043 269.665H477.789V176.584C477.789 168.334 476.958 160.09 475.319 152.082C473.723 144.279 471.34 136.604 468.239 129.271C465.193 122.069 461.422 115.123 457.032 108.625C452.683 102.187 447.688 96.1333 442.186 90.6313C436.684 85.1294 430.63 80.1343 424.193 75.7852C417.695 71.395 410.748 67.625 403.547 64.5786C396.213 61.4771 388.539 59.0947 380.736 57.498C372.728 55.8594 364.484 55.0283 356.233 55.0283H87.0293ZM82.0293 50.0283H356.233C426.128 50.0283 482.789 106.689 482.789 176.584V274.665C363.088 274.665 113.139 274.665 113.139 274.665L82.0293 306.304C82.0293 306.304 82.0293 124.908 82.0293 50.0283Z" fill="#F2F5F7"/>
</g>
<defs>
<filter id="filter0_d_4_469" x="0.878297" y="0.14432" width="540.76" height="396.276" filterUnits="userSpaceOnUse" color-interpolation-filters="sRGB">
<feFlood flood-opacity="0" result="BackgroundImageFix"/>
<feColorMatrix in="SourceAlpha" type="matrix" values="0 0 0 0 0 0 0 0 0 0 0 0 0 0 0 0 0 0 127 0" result="hardAlpha"/>
<feOffset dx="-11.151" dy="20.116"/>
<feGaussianBlur stdDeviation="35"/>
<feColorMatrix type="matrix" values="0 0 0 0 0.14902 0 0 0 0 0.180392 0 0 0 0 0.203922 0 0 0 0.102 0"/>
<feBlend mode="normal" in2="BackgroundImageFix" result="effect1_dropShadow_4_469"/>
<feBlend mode="normal" in="SourceGraphic" in2="effect1_dropShadow_4_469" result="shape"/>
</filter>
</defs>
</svg>
