<svg width="42" height="21" viewBox="0 0 42 21" fill="none" xmlns="http://www.w3.org/2000/svg">
<path d="M13.6503 10.8C13.8775 10.9705 14.1538 11.0627 14.4378 11.0627C14.7218 11.0627 14.9981 10.9705 15.2253 10.8L26.3813 2.40002L28.8753 0.562012H36.7503C37.0921 0.571448 37.4168 0.713872 37.6552 0.958984C37.8937 1.2041 38.0271 1.53256 38.0271 1.87451C38.0271 2.21647 37.8937 2.54493 37.6552 2.79004C37.4168 3.03515 37.0921 3.17758 36.7503 3.18701H30.1883C29.8465 3.19645 29.5218 3.33887 29.2834 3.58398C29.0449 3.8291 28.9115 4.15756 28.9115 4.49951C28.9115 4.84147 29.0449 5.16993 29.2834 5.41504C29.5218 5.66015 29.8465 5.80258 30.1883 5.81201H40.6883C41.0301 5.82145 41.3548 5.96387 41.5932 6.20898C41.8317 6.4541 41.9651 6.78256 41.9651 7.12451C41.9651 7.46647 41.8317 7.79493 41.5932 8.04004C41.3548 8.28515 41.0301 8.42758 40.6883 8.43701H30.1883C29.8465 8.44645 29.5218 8.58887 29.2834 8.83398C29.0449 9.0791 28.9115 9.40756 28.9115 9.74951C28.9115 10.0915 29.0449 10.4199 29.2834 10.665C29.5218 10.9102 29.8465 11.0526 30.1883 11.062H36.7503C37.0921 11.0714 37.4168 11.2139 37.6552 11.459C37.8937 11.7041 38.0271 12.0326 38.0271 12.3745C38.0271 12.7165 37.8937 13.0449 37.6552 13.29C37.4168 13.5352 37.0921 13.6776 36.7503 13.687H28.8753C28.8837 14.5512 28.7197 15.4084 28.3929 16.2085C28.066 17.0086 27.5829 17.7354 26.9718 18.3465C26.3607 18.9576 25.6338 19.4407 24.8338 19.7676C24.0337 20.0944 23.1765 20.2584 22.3123 20.25H6.5623C5.69826 20.2583 4.84124 20.0942 4.04136 19.7674C3.24148 19.4406 2.5148 18.9575 1.90381 18.3465C1.29281 17.7355 0.809769 17.0088 0.48293 16.209C0.156092 15.4091 -0.00798308 14.5521 0.000298581 13.688V0.563019L13.6503 10.8Z" fill="black"/>
</svg>
