<svg width="36" height="37" viewBox="0 0 36 37" fill="none" xmlns="http://www.w3.org/2000/svg">
<path fill-rule="evenodd" clip-rule="evenodd" d="M18.0004 14.5992V18.1992H21.6004C21.6004 17.2444 21.2212 16.3288 20.546 15.6536C19.8709 14.9785 18.9552 14.5992 18.0004 14.5992ZM18.0004 7.39922V10.9992C19.9094 11.0011 21.7397 11.7602 23.0896 13.1101C24.4394 14.46 25.1986 16.2902 25.2004 18.1992H28.8004C28.8004 15.3349 27.6626 12.5879 25.6372 10.5625C23.6118 8.53708 20.8648 7.39922 18.0004 7.39922ZM18.0004 0.199219V3.79922C21.8182 3.80372 25.4783 5.3223 28.1778 8.02185C30.8774 10.7214 32.3959 14.3815 32.4004 18.1992H36.0004C36.0004 13.4253 34.104 8.84695 30.7284 5.4713C27.3527 2.09564 22.7743 0.199219 18.0004 0.199219ZM26.3744 33.0202C26.3524 33.0852 26.3544 33.0762 26.3744 33.0202V33.0202ZM25.4114 28.2402C24.1719 27.5153 22.8952 26.8561 21.5864 26.2652C19.0574 25.2332 19.2284 28.2822 17.4234 29.2712C16.2494 29.9132 14.5934 28.7492 13.5694 28.1042C11.7623 26.9506 10.1734 25.4864 8.87644 23.7792C8.20144 22.9032 6.71144 21.2542 6.89444 20.0242C7.18644 18.0732 9.49444 17.9752 8.83344 15.5892C8.48044 14.3112 7.84844 13.0532 7.37544 11.8222C6.74144 10.1712 6.48044 9.11422 4.63244 9.20422C4.02592 9.22517 3.43325 9.39107 2.904 9.68805C2.37476 9.98503 1.92434 10.4045 1.59044 10.9112C-0.63056 13.8042 -0.295561 17.7042 1.19644 20.8772C3.3996 25.4325 6.69805 29.3704 10.7964 32.3382C13.5247 34.3679 16.7153 35.6865 20.0804 36.1752C22.4134 36.3862 25.6804 35.1252 26.5114 32.5922C26.4534 32.7682 26.3984 32.9392 26.3714 33.0202C26.3914 32.9572 26.4344 32.8302 26.5114 32.5922C26.5964 32.3362 26.6374 32.2082 26.6574 32.1512C26.6324 32.2262 26.5744 32.4032 26.5134 32.5872C27.2514 30.3552 27.3404 29.2782 25.4114 28.2402ZM26.6604 32.1512C26.6744 32.1042 26.6744 32.1082 26.6604 32.1512V32.1512Z" fill="black"/>
</svg>
