<svg width="1920" height="162" viewBox="0 0 1920 162" fill="none" xmlns="http://www.w3.org/2000/svg">
<path d="M2114.71 93.533C2114.71 92.804 2111.98 92.226 2108.59 92.189C2074.37 91.82 2056.46 88.354 2037.56 84.696C2016.67 80.654 1995.09 76.478 1952.01 76.478C1908.95 76.478 1887.37 80.654 1866.5 84.694C1846.5 88.565 1827.61 92.221 1789.33 92.221C1753.04 92.221 1733.13 80.664 1713.89 69.488C1693.15 57.442 1671.7 44.988 1626.65 44.988C1581.3 44.988 1560.91 59.988 1539.31 75.868C1519.97 90.101 1499.96 104.819 1463.97 104.819C1428.62 104.819 1406.57 76.389 1388.84 53.547C1366.54 24.814 1347.29 0.000976562 1301.3 0.000976562C1257.3 0.000976562 1235.68 6.93598 1214.77 13.645C1194.82 20.045 1175.97 26.092 1138.66 26.092C1094.87 26.092 1073.24 32.312 1052.33 38.327C1032.37 44.065 1013.53 49.485 975.981 49.485C931.893 49.485 910.281 56.776 889.381 63.827C869.41 70.563 850.553 76.927 813.305 76.927C776.057 76.927 757.2 70.671 737.245 64.049C716.337 57.111 694.71 49.936 650.622 49.936C604.622 49.936 585.397 75.687 563.122 105.504C545.379 129.25 523.307 158.804 487.991 158.804C452.691 158.804 430.586 127.629 412.827 102.581C390.576 71.195 371.347 44.087 325.316 44.087C280.264 44.087 258.832 56.774 238.101 69.044C218.856 80.439 198.944 92.223 162.675 92.223C125.4 92.223 106.535 85.965 86.575 79.339C65.675 72.404 44.056 65.232 0.00195312 65.232V67.932C37.25 67.932 56.102 74.187 76.061 80.809C96.97 87.749 118.588 94.924 162.677 94.924C207.728 94.924 229.16 82.237 249.892 69.967C269.137 58.572 289.049 46.789 325.318 46.789C360.583 46.789 382.681 77.949 400.432 102.989C422.699 134.389 441.92 161.503 487.992 161.503C533.992 161.503 553.226 135.752 575.503 105.935C593.237 82.189 615.31 52.635 650.625 52.635C687.907 52.635 706.764 58.893 726.735 65.519C747.635 72.455 769.245 79.626 813.308 79.626C857.422 79.626 879.04 72.333 899.949 65.28C919.912 58.545 938.769 52.185 975.983 52.185C1019.8 52.185 1041.44 45.963 1062.36 39.945C1082.31 34.209 1101.15 28.792 1138.66 28.792C1182.66 28.792 1204.28 21.856 1225.18 15.148C1245.14 8.74798 1263.98 2.69898 1301.3 2.69898C1336.68 2.69898 1358.74 31.139 1376.48 53.991C1398.77 82.713 1418.01 107.519 1463.98 107.519C1509.36 107.519 1529.75 92.513 1551.35 76.626C1570.7 62.399 1590.69 47.686 1626.65 47.686C1662.98 47.686 1682.88 59.248 1702.15 70.43C1722.88 82.47 1744.32 94.923 1789.34 94.923C1832.42 94.923 1854.01 90.743 1874.89 86.703C1894.87 82.832 1913.76 79.177 1952.01 79.177C1990.29 79.177 2009.18 82.833 2029.18 86.704C2048.98 90.535 2069.42 94.491 2108.23 94.89C2111.76 94.926 2114.71 94.29 2114.71 93.534L2114.71 93.533Z" fill="url(#paint0_linear_4_408)"/>
<defs>
<linearGradient id="paint0_linear_4_408" x1="0.00195312" y1="80.752" x2="2277.54" y2="80.752" gradientUnits="userSpaceOnUse">
<stop stop-color="#F0D5D5"/>
<stop offset="1" stop-color="#F6E1CB"/>
</linearGradient>
</defs>
</svg>
